<svg width="383" height="366" viewBox="0 0 383 366" fill="none" xmlns="http://www.w3.org/2000/svg">
<g filter="url(#filter0_d_233_8283)">
<rect x="13" y="13" width="353" height="336" rx="12" fill="white"/>
<path d="M60.328 105.56C60.5893 105.56 60.7993 105.644 60.958 105.812C61.1167 105.971 61.196 106.185 61.196 106.456V114.744C61.196 115.005 61.1213 115.211 60.972 115.36C60.8227 115.509 60.6267 115.584 60.384 115.584C60.1413 115.584 59.95 115.509 59.81 115.36C59.67 115.211 59.6 115.005 59.6 114.744V108.976L57.22 113.484C57.108 113.689 56.9867 113.843 56.856 113.946C56.7253 114.039 56.5713 114.086 56.394 114.086C56.2167 114.086 56.0627 114.039 55.932 113.946C55.8013 113.853 55.68 113.699 55.568 113.484L53.174 109.046V114.744C53.174 114.996 53.0993 115.201 52.95 115.36C52.81 115.509 52.6187 115.584 52.376 115.584C52.1333 115.584 51.942 115.509 51.802 115.36C51.662 115.211 51.592 115.005 51.592 114.744V106.456C51.592 106.185 51.6667 105.971 51.816 105.812C51.9747 105.644 52.1847 105.56 52.446 105.56C52.81 105.56 53.0947 105.761 53.3 106.162L56.408 112.084L59.502 106.162C59.7073 105.761 59.9827 105.56 60.328 105.56ZM66.3035 115.612C65.6035 115.612 64.9875 115.467 64.4555 115.178C63.9328 114.889 63.5268 114.473 63.2375 113.932C62.9482 113.391 62.8035 112.761 62.8035 112.042C62.8035 111.323 62.9482 110.698 63.2375 110.166C63.5268 109.625 63.9328 109.209 64.4555 108.92C64.9875 108.631 65.6035 108.486 66.3035 108.486C67.0035 108.486 67.6148 108.631 68.1375 108.92C68.6695 109.209 69.0755 109.625 69.3555 110.166C69.6448 110.698 69.7895 111.323 69.7895 112.042C69.7895 112.761 69.6448 113.391 69.3555 113.932C69.0755 114.473 68.6695 114.889 68.1375 115.178C67.6148 115.467 67.0035 115.612 66.3035 115.612ZM66.2895 114.254C66.8588 114.254 67.2928 114.067 67.5915 113.694C67.8902 113.321 68.0395 112.77 68.0395 112.042C68.0395 111.323 67.8902 110.777 67.5915 110.404C67.2928 110.021 66.8635 109.83 66.3035 109.83C65.7435 109.83 65.3095 110.021 65.0015 110.404C64.7028 110.777 64.5535 111.323 64.5535 112.042C64.5535 112.77 64.7028 113.321 65.0015 113.694C65.3002 114.067 65.7295 114.254 66.2895 114.254Z" fill="#FF9138"/>
<path d="M59.112 150.534C59.28 150.534 59.4107 150.576 59.504 150.66C59.5973 150.744 59.644 150.861 59.644 151.01C59.644 151.337 59.4667 151.5 59.112 151.5H53.624C53.4653 151.5 53.3347 151.453 53.232 151.36C53.1293 151.257 53.078 151.136 53.078 150.996C53.078 150.819 53.1433 150.665 53.274 150.534L56.648 146.824C57.1147 146.301 57.4507 145.835 57.656 145.424C57.8707 145.004 57.978 144.584 57.978 144.164C57.978 143.623 57.8193 143.207 57.502 142.918C57.194 142.629 56.7553 142.484 56.186 142.484C55.738 142.484 55.3087 142.568 54.898 142.736C54.4873 142.895 54.0767 143.142 53.666 143.478C53.526 143.59 53.3953 143.646 53.274 143.646C53.1713 143.646 53.0827 143.599 53.008 143.506C52.9333 143.403 52.896 143.282 52.896 143.142C52.896 142.946 52.9707 142.787 53.12 142.666C53.5027 142.311 53.9693 142.031 54.52 141.826C55.0707 141.621 55.6353 141.518 56.214 141.518C57.1007 141.518 57.8053 141.751 58.328 142.218C58.86 142.685 59.126 143.315 59.126 144.108C59.126 144.677 58.9953 145.223 58.734 145.746C58.482 146.269 58.062 146.852 57.474 147.496L54.674 150.534H59.112ZM67.4365 141.63C67.6045 141.63 67.7305 141.677 67.8145 141.77C67.9079 141.854 67.9545 141.966 67.9545 142.106C67.9545 142.237 67.9125 142.381 67.8285 142.54L63.1805 151.29C63.0685 151.495 62.9052 151.598 62.6905 151.598C62.5412 151.598 62.4059 151.547 62.2845 151.444C62.1725 151.341 62.1165 151.215 62.1165 151.066C62.1165 150.963 62.1492 150.861 62.2145 150.758L66.5825 142.596H61.7525C61.5845 142.596 61.4539 142.554 61.3605 142.47C61.2765 142.386 61.2345 142.269 61.2345 142.12C61.2345 141.961 61.2765 141.84 61.3605 141.756C61.4539 141.672 61.5845 141.63 61.7525 141.63H67.4365Z" fill="#7E7D88"/>
<path d="M63.406 190.308C63.8633 190.308 64.092 190.499 64.092 190.882C64.092 191.265 63.8633 191.456 63.406 191.456H62.51V192.842C62.51 193.075 62.4447 193.257 62.314 193.388C62.1833 193.509 62.0107 193.57 61.796 193.57C61.5907 193.57 61.4227 193.509 61.292 193.388C61.1613 193.257 61.096 193.075 61.096 192.842V191.456H57.162C56.9567 191.456 56.798 191.4 56.686 191.288C56.574 191.176 56.518 191.031 56.518 190.854C56.518 190.667 56.5787 190.485 56.7 190.308L61.166 183.882C61.3153 183.667 61.5253 183.56 61.796 183.56C61.992 183.56 62.16 183.625 62.3 183.756C62.44 183.877 62.51 184.055 62.51 184.288V190.308H63.406ZM58.072 190.308H61.096V185.94L58.072 190.308Z" fill="#535261"/>
<path d="M58.944 234.31C59.168 234.31 59.336 234.361 59.448 234.464C59.56 234.567 59.616 234.711 59.616 234.898C59.616 235.299 59.392 235.5 58.944 235.5H54.268C53.8107 235.5 53.582 235.299 53.582 234.898C53.582 234.711 53.638 234.567 53.75 234.464C53.8713 234.361 54.044 234.31 54.268 234.31H55.878V227.324L54.436 228.234C54.3427 228.29 54.2493 228.318 54.156 228.318C53.9973 228.318 53.8573 228.248 53.736 228.108C53.624 227.968 53.568 227.809 53.568 227.632C53.568 227.417 53.6613 227.249 53.848 227.128L56.004 225.756C56.2187 225.625 56.424 225.56 56.62 225.56C56.8253 225.56 56.9933 225.625 57.124 225.756C57.2547 225.887 57.32 226.064 57.32 226.288V234.31H58.944ZM67.3385 234.31C67.5625 234.31 67.7305 234.361 67.8425 234.464C67.9545 234.567 68.0105 234.711 68.0105 234.898C68.0105 235.299 67.7865 235.5 67.3385 235.5H62.6625C62.2052 235.5 61.9765 235.299 61.9765 234.898C61.9765 234.711 62.0325 234.567 62.1445 234.464C62.2659 234.361 62.4385 234.31 62.6625 234.31H64.2725V227.324L62.8305 228.234C62.7372 228.29 62.6439 228.318 62.5505 228.318C62.3919 228.318 62.2519 228.248 62.1305 228.108C62.0185 227.968 61.9625 227.809 61.9625 227.632C61.9625 227.417 62.0559 227.249 62.2425 227.128L64.3985 225.756C64.6132 225.625 64.8185 225.56 65.0145 225.56C65.2199 225.56 65.3879 225.625 65.5185 225.756C65.6492 225.887 65.7145 226.064 65.7145 226.288V234.31H67.3385Z" fill="#535261"/>
<path d="M58.944 276.31C59.168 276.31 59.336 276.361 59.448 276.464C59.56 276.567 59.616 276.711 59.616 276.898C59.616 277.299 59.392 277.5 58.944 277.5H54.268C53.8107 277.5 53.582 277.299 53.582 276.898C53.582 276.711 53.638 276.567 53.75 276.464C53.8713 276.361 54.044 276.31 54.268 276.31H55.878V269.324L54.436 270.234C54.3427 270.29 54.2493 270.318 54.156 270.318C53.9973 270.318 53.8573 270.248 53.736 270.108C53.624 269.968 53.568 269.809 53.568 269.632C53.568 269.417 53.6613 269.249 53.848 269.128L56.004 267.756C56.2187 267.625 56.424 267.56 56.62 267.56C56.8253 267.56 56.9933 267.625 57.124 267.756C57.2547 267.887 57.32 268.064 57.32 268.288V276.31H58.944ZM66.3865 272.432C66.9652 272.6 67.4132 272.899 67.7305 273.328C68.0479 273.757 68.2065 274.271 68.2065 274.868C68.2065 275.727 67.8892 276.399 67.2545 276.884C66.6292 277.36 65.7425 277.598 64.5945 277.598C63.4465 277.598 62.5552 277.36 61.9205 276.884C61.2952 276.399 60.9825 275.727 60.9825 274.868C60.9825 274.261 61.1412 273.743 61.4585 273.314C61.7852 272.885 62.2379 272.591 62.8165 272.432C62.3219 272.245 61.9299 271.951 61.6405 271.55C61.3605 271.149 61.2205 270.682 61.2205 270.15C61.2205 269.338 61.5192 268.699 62.1165 268.232C62.7139 267.756 63.5399 267.518 64.5945 267.518C65.6492 267.518 66.4752 267.756 67.0725 268.232C67.6699 268.699 67.9685 269.338 67.9685 270.15C67.9685 270.682 67.8239 271.153 67.5345 271.564C67.2545 271.965 66.8719 272.255 66.3865 272.432ZM64.5945 268.68C63.9412 268.68 63.4465 268.82 63.1105 269.1C62.7745 269.371 62.6065 269.763 62.6065 270.276C62.6065 270.808 62.7745 271.214 63.1105 271.494C63.4465 271.774 63.9412 271.914 64.5945 271.914C65.2479 271.914 65.7425 271.774 66.0785 271.494C66.4145 271.214 66.5825 270.808 66.5825 270.276C66.5825 269.763 66.4145 269.371 66.0785 269.1C65.7425 268.82 65.2479 268.68 64.5945 268.68ZM64.5945 276.436C66.0785 276.436 66.8205 275.881 66.8205 274.77C66.8205 273.65 66.0785 273.09 64.5945 273.09C63.1105 273.09 62.3685 273.65 62.3685 274.77C62.3685 275.881 63.1105 276.436 64.5945 276.436Z" fill="#535261"/>
<path d="M59.042 318.31C59.266 318.31 59.434 318.361 59.546 318.464C59.6673 318.567 59.728 318.711 59.728 318.898C59.728 319.299 59.4993 319.5 59.042 319.5H53.638C53.4327 319.5 53.2693 319.444 53.148 319.332C53.036 319.211 52.98 319.061 52.98 318.884C52.98 318.669 53.064 318.473 53.232 318.296L56.522 314.698C56.9607 314.222 57.278 313.788 57.474 313.396C57.67 313.004 57.768 312.617 57.768 312.234C57.768 311.739 57.6233 311.361 57.334 311.1C57.054 310.829 56.6527 310.694 56.13 310.694C55.3367 310.694 54.548 310.997 53.764 311.604C53.6613 311.669 53.5727 311.721 53.498 311.758C53.4327 311.786 53.3627 311.8 53.288 311.8C53.1573 311.8 53.0453 311.739 52.952 311.618C52.8587 311.497 52.812 311.352 52.812 311.184C52.812 310.951 52.9053 310.764 53.092 310.624C53.484 310.288 53.9553 310.022 54.506 309.826C55.0567 309.621 55.612 309.518 56.172 309.518C57.096 309.518 57.8287 309.756 58.37 310.232C58.9207 310.699 59.196 311.333 59.196 312.136C59.196 312.705 59.07 313.247 58.818 313.76C58.5753 314.273 58.1647 314.847 57.586 315.482L54.94 318.31H59.042ZM65.0425 313.256C65.6585 313.256 66.1999 313.387 66.6665 313.648C67.1425 313.909 67.5112 314.278 67.7725 314.754C68.0339 315.23 68.1645 315.776 68.1645 316.392C68.1645 317.017 68.0199 317.573 67.7305 318.058C67.4412 318.543 67.0352 318.921 66.5125 319.192C65.9992 319.463 65.4065 319.598 64.7345 319.598C64.1559 319.598 63.5865 319.5 63.0265 319.304C62.4759 319.108 62.0139 318.837 61.6405 318.492C61.4539 318.333 61.3605 318.147 61.3605 317.932C61.3605 317.764 61.4072 317.624 61.5005 317.512C61.5939 317.391 61.7059 317.33 61.8365 317.33C61.9205 317.33 61.9952 317.344 62.0605 317.372C62.1352 317.4 62.2192 317.447 62.3125 317.512C62.6952 317.811 63.0779 318.039 63.4605 318.198C63.8525 318.347 64.2632 318.422 64.6925 318.422C65.3459 318.422 65.8545 318.249 66.2185 317.904C66.5825 317.549 66.7645 317.055 66.7645 316.42C66.7645 315.813 66.5779 315.328 66.2045 314.964C65.8405 314.6 65.3505 314.418 64.7345 314.418C64.3332 314.418 63.9739 314.488 63.6565 314.628C63.3392 314.759 63.0405 314.969 62.7605 315.258C62.6205 315.389 62.4525 315.454 62.2565 315.454C62.0979 315.454 61.9625 315.407 61.8505 315.314C61.7479 315.211 61.6965 315.081 61.6965 314.922V310.316C61.6965 310.101 61.7525 309.933 61.8645 309.812C61.9859 309.691 62.1585 309.63 62.3825 309.63H67.1985C67.4132 309.63 67.5812 309.681 67.7025 309.784C67.8239 309.887 67.8845 310.027 67.8845 310.204C67.8845 310.391 67.8239 310.535 67.7025 310.638C67.5812 310.741 67.4132 310.792 67.1985 310.792H63.1245V313.9C63.6379 313.471 64.2772 313.256 65.0425 313.256Z" fill="#535261"/>
<path d="M98.798 115.57C98.518 115.57 98.294 115.491 98.126 115.332C97.9673 115.164 97.888 114.945 97.888 114.674V107.114H95.34C94.78 107.114 94.5 106.867 94.5 106.372C94.5 105.877 94.78 105.63 95.34 105.63H102.242C102.802 105.63 103.082 105.877 103.082 106.372C103.082 106.867 102.802 107.114 102.242 107.114H99.694V114.674C99.694 114.945 99.61 115.164 99.442 115.332C99.2833 115.491 99.0687 115.57 98.798 115.57ZM108.32 108.514C108.591 108.514 108.805 108.589 108.964 108.738C109.123 108.887 109.202 109.088 109.202 109.34V114.772C109.202 115.015 109.118 115.211 108.95 115.36C108.791 115.509 108.581 115.584 108.32 115.584C108.068 115.584 107.867 115.514 107.718 115.374C107.569 115.234 107.494 115.043 107.494 114.8V114.45C107.279 114.823 106.99 115.113 106.626 115.318C106.262 115.514 105.851 115.612 105.394 115.612C103.714 115.612 102.874 114.669 102.874 112.784V109.34C102.874 109.088 102.953 108.887 103.112 108.738C103.271 108.589 103.481 108.514 103.742 108.514C104.013 108.514 104.227 108.589 104.386 108.738C104.545 108.887 104.624 109.088 104.624 109.34V112.798C104.624 113.283 104.722 113.643 104.918 113.876C105.114 114.109 105.422 114.226 105.842 114.226C106.327 114.226 106.715 114.067 107.004 113.75C107.303 113.423 107.452 112.994 107.452 112.462V109.34C107.452 109.088 107.531 108.887 107.69 108.738C107.849 108.589 108.059 108.514 108.32 108.514Z" fill="#FF9138"/>
<path d="M101.112 150.534C101.28 150.534 101.411 150.576 101.504 150.66C101.597 150.744 101.644 150.861 101.644 151.01C101.644 151.337 101.467 151.5 101.112 151.5H95.624C95.4653 151.5 95.3347 151.453 95.232 151.36C95.1293 151.257 95.078 151.136 95.078 150.996C95.078 150.819 95.1433 150.665 95.274 150.534L98.648 146.824C99.1147 146.301 99.4507 145.835 99.656 145.424C99.8707 145.004 99.978 144.584 99.978 144.164C99.978 143.623 99.8193 143.207 99.502 142.918C99.194 142.629 98.7553 142.484 98.186 142.484C97.738 142.484 97.3087 142.568 96.898 142.736C96.4873 142.895 96.0767 143.142 95.666 143.478C95.526 143.59 95.3953 143.646 95.274 143.646C95.1713 143.646 95.0827 143.599 95.008 143.506C94.9333 143.403 94.896 143.282 94.896 143.142C94.896 142.946 94.9707 142.787 95.12 142.666C95.5027 142.311 95.9693 142.031 96.52 141.826C97.0707 141.621 97.6353 141.518 98.214 141.518C99.1007 141.518 99.8053 141.751 100.328 142.218C100.86 142.685 101.126 143.315 101.126 144.108C101.126 144.677 100.995 145.223 100.734 145.746C100.482 146.269 100.062 146.852 99.474 147.496L96.674 150.534H101.112ZM108.303 146.432C108.881 146.609 109.329 146.913 109.647 147.342C109.973 147.771 110.137 148.285 110.137 148.882C110.137 149.731 109.829 150.399 109.213 150.884C108.597 151.36 107.724 151.598 106.595 151.598C105.465 151.598 104.593 151.36 103.977 150.884C103.361 150.399 103.053 149.731 103.053 148.882C103.053 148.275 103.216 147.757 103.543 147.328C103.869 146.899 104.322 146.6 104.901 146.432C104.406 146.245 104.014 145.951 103.725 145.55C103.435 145.149 103.291 144.677 103.291 144.136C103.291 143.333 103.58 142.699 104.159 142.232C104.747 141.756 105.559 141.518 106.595 141.518C107.631 141.518 108.438 141.756 109.017 142.232C109.605 142.699 109.899 143.333 109.899 144.136C109.899 144.677 109.754 145.153 109.465 145.564C109.175 145.965 108.788 146.255 108.303 146.432ZM104.425 144.22C104.425 144.799 104.607 145.242 104.971 145.55C105.344 145.858 105.885 146.012 106.595 146.012C107.304 146.012 107.841 145.858 108.205 145.55C108.578 145.242 108.765 144.799 108.765 144.22C108.765 143.669 108.578 143.24 108.205 142.932C107.841 142.624 107.304 142.47 106.595 142.47C105.885 142.47 105.344 142.624 104.971 142.932C104.607 143.24 104.425 143.669 104.425 144.22ZM106.595 150.646C108.2 150.646 109.003 150.035 109.003 148.812C109.003 147.589 108.2 146.978 106.595 146.978C104.989 146.978 104.187 147.589 104.187 148.812C104.187 150.035 104.989 150.646 106.595 150.646Z" fill="#7E7D88"/>
<path d="M102.648 187.256C103.264 187.256 103.805 187.387 104.272 187.648C104.748 187.909 105.117 188.278 105.378 188.754C105.639 189.23 105.77 189.776 105.77 190.392C105.77 191.017 105.625 191.573 105.336 192.058C105.047 192.543 104.641 192.921 104.118 193.192C103.605 193.463 103.012 193.598 102.34 193.598C101.761 193.598 101.192 193.5 100.632 193.304C100.081 193.108 99.6193 192.837 99.246 192.492C99.0593 192.333 98.966 192.147 98.966 191.932C98.966 191.764 99.0127 191.624 99.106 191.512C99.1993 191.391 99.3113 191.33 99.442 191.33C99.526 191.33 99.6007 191.344 99.666 191.372C99.7407 191.4 99.8247 191.447 99.918 191.512C100.301 191.811 100.683 192.039 101.066 192.198C101.458 192.347 101.869 192.422 102.298 192.422C102.951 192.422 103.46 192.249 103.824 191.904C104.188 191.549 104.37 191.055 104.37 190.42C104.37 189.813 104.183 189.328 103.81 188.964C103.446 188.6 102.956 188.418 102.34 188.418C101.939 188.418 101.579 188.488 101.262 188.628C100.945 188.759 100.646 188.969 100.366 189.258C100.226 189.389 100.058 189.454 99.862 189.454C99.7033 189.454 99.568 189.407 99.456 189.314C99.3533 189.211 99.302 189.081 99.302 188.922V184.316C99.302 184.101 99.358 183.933 99.47 183.812C99.5913 183.691 99.764 183.63 99.988 183.63H104.804C105.019 183.63 105.187 183.681 105.308 183.784C105.429 183.887 105.49 184.027 105.49 184.204C105.49 184.391 105.429 184.535 105.308 184.638C105.187 184.741 105.019 184.792 104.804 184.792H100.73V187.9C101.243 187.471 101.883 187.256 102.648 187.256Z" fill="#535261"/>
<path d="M100.944 234.31C101.168 234.31 101.336 234.361 101.448 234.464C101.56 234.567 101.616 234.711 101.616 234.898C101.616 235.299 101.392 235.5 100.944 235.5H96.268C95.8107 235.5 95.582 235.299 95.582 234.898C95.582 234.711 95.638 234.567 95.75 234.464C95.8713 234.361 96.044 234.31 96.268 234.31H97.878V227.324L96.436 228.234C96.3427 228.29 96.2493 228.318 96.156 228.318C95.9973 228.318 95.8573 228.248 95.736 228.108C95.624 227.968 95.568 227.809 95.568 227.632C95.568 227.417 95.6613 227.249 95.848 227.128L98.004 225.756C98.2187 225.625 98.424 225.56 98.62 225.56C98.8253 225.56 98.9933 225.625 99.124 225.756C99.2547 225.887 99.32 226.064 99.32 226.288V234.31H100.944ZM109.437 234.31C109.661 234.31 109.829 234.361 109.941 234.464C110.062 234.567 110.123 234.711 110.123 234.898C110.123 235.299 109.894 235.5 109.437 235.5H104.033C103.827 235.5 103.664 235.444 103.543 235.332C103.431 235.211 103.375 235.061 103.375 234.884C103.375 234.669 103.459 234.473 103.627 234.296L106.917 230.698C107.355 230.222 107.673 229.788 107.869 229.396C108.065 229.004 108.163 228.617 108.163 228.234C108.163 227.739 108.018 227.361 107.729 227.1C107.449 226.829 107.047 226.694 106.525 226.694C105.731 226.694 104.943 226.997 104.159 227.604C104.056 227.669 103.967 227.721 103.893 227.758C103.827 227.786 103.757 227.8 103.683 227.8C103.552 227.8 103.44 227.739 103.347 227.618C103.253 227.497 103.207 227.352 103.207 227.184C103.207 226.951 103.3 226.764 103.487 226.624C103.879 226.288 104.35 226.022 104.901 225.826C105.451 225.621 106.007 225.518 106.567 225.518C107.491 225.518 108.223 225.756 108.765 226.232C109.315 226.699 109.591 227.333 109.591 228.136C109.591 228.705 109.465 229.247 109.213 229.76C108.97 230.273 108.559 230.847 107.981 231.482L105.335 234.31H109.437Z" fill="#535261"/>
<rect x="84.5" y="255" width="36" height="36" rx="8" fill="#FF7506"/>
<path d="M101.014 276.044C101.574 276.044 101.854 276.282 101.854 276.758C101.854 277.253 101.574 277.5 101.014 277.5H96.282C95.7127 277.5 95.428 277.253 95.428 276.758C95.428 276.282 95.7127 276.044 96.282 276.044H97.738V269.66L96.394 270.486C96.2633 270.561 96.1467 270.598 96.044 270.598C95.848 270.598 95.68 270.514 95.54 270.346C95.4093 270.178 95.344 269.991 95.344 269.786C95.344 269.515 95.4653 269.305 95.708 269.156L97.878 267.812C98.158 267.644 98.424 267.56 98.676 267.56C98.9373 267.56 99.1473 267.639 99.306 267.798C99.4647 267.957 99.544 268.176 99.544 268.456V276.044H101.014ZM106.273 267.504C107.523 267.504 108.485 267.929 109.157 268.778C109.838 269.618 110.179 270.822 110.179 272.39C110.179 273.463 110.02 274.397 109.703 275.19C109.385 275.974 108.928 276.576 108.331 276.996C107.743 277.416 107.047 277.626 106.245 277.626C105.713 277.626 105.176 277.533 104.635 277.346C104.103 277.15 103.65 276.889 103.277 276.562C103.155 276.459 103.067 276.361 103.011 276.268C102.964 276.165 102.941 276.044 102.941 275.904C102.941 275.699 102.997 275.526 103.109 275.386C103.23 275.237 103.37 275.162 103.529 275.162C103.622 275.162 103.711 275.181 103.795 275.218C103.879 275.246 103.981 275.297 104.103 275.372C104.877 275.913 105.568 276.184 106.175 276.184C106.856 276.184 107.393 275.871 107.785 275.246C108.177 274.611 108.382 273.725 108.401 272.586C108.186 273.006 107.864 273.342 107.435 273.594C107.005 273.837 106.525 273.958 105.993 273.958C105.405 273.958 104.882 273.827 104.425 273.566C103.967 273.295 103.608 272.922 103.347 272.446C103.095 271.961 102.969 271.41 102.969 270.794C102.969 270.159 103.109 269.595 103.389 269.1C103.678 268.596 104.07 268.204 104.565 267.924C105.069 267.644 105.638 267.504 106.273 267.504ZM106.371 272.53C106.893 272.53 107.313 272.367 107.631 272.04C107.957 271.704 108.121 271.27 108.121 270.738C108.121 270.197 107.957 269.763 107.631 269.436C107.313 269.1 106.893 268.932 106.371 268.932C105.857 268.932 105.447 269.1 105.139 269.436C104.831 269.763 104.677 270.197 104.677 270.738C104.677 271.279 104.831 271.713 105.139 272.04C105.447 272.367 105.857 272.53 106.371 272.53Z" fill="white"/>
<path d="M101.042 318.31C101.266 318.31 101.434 318.361 101.546 318.464C101.667 318.567 101.728 318.711 101.728 318.898C101.728 319.299 101.499 319.5 101.042 319.5H95.638C95.4327 319.5 95.2693 319.444 95.148 319.332C95.036 319.211 94.98 319.061 94.98 318.884C94.98 318.669 95.064 318.473 95.232 318.296L98.522 314.698C98.9607 314.222 99.278 313.788 99.474 313.396C99.67 313.004 99.768 312.617 99.768 312.234C99.768 311.739 99.6233 311.361 99.334 311.1C99.054 310.829 98.6527 310.694 98.13 310.694C97.3367 310.694 96.548 310.997 95.764 311.604C95.6613 311.669 95.5727 311.721 95.498 311.758C95.4327 311.786 95.3627 311.8 95.288 311.8C95.1573 311.8 95.0453 311.739 94.952 311.618C94.8587 311.497 94.812 311.352 94.812 311.184C94.812 310.951 94.9053 310.764 95.092 310.624C95.484 310.288 95.9553 310.022 96.506 309.826C97.0567 309.621 97.612 309.518 98.172 309.518C99.096 309.518 99.8287 309.756 100.37 310.232C100.921 310.699 101.196 311.333 101.196 312.136C101.196 312.705 101.07 313.247 100.818 313.76C100.575 314.273 100.165 314.847 99.586 315.482L96.94 318.31H101.042ZM107.099 313.242C107.687 313.242 108.214 313.377 108.681 313.648C109.147 313.909 109.507 314.278 109.759 314.754C110.02 315.23 110.151 315.776 110.151 316.392C110.151 317.008 110.011 317.563 109.731 318.058C109.451 318.543 109.063 318.926 108.569 319.206C108.083 319.477 107.528 319.612 106.903 319.612C105.68 319.612 104.737 319.197 104.075 318.366C103.421 317.526 103.095 316.331 103.095 314.782C103.095 313.69 103.249 312.752 103.557 311.968C103.865 311.175 104.308 310.568 104.887 310.148C105.465 309.728 106.151 309.518 106.945 309.518C107.477 309.518 108.009 309.616 108.541 309.812C109.073 310.008 109.525 310.279 109.899 310.624C110.085 310.783 110.179 310.969 110.179 311.184C110.179 311.352 110.132 311.497 110.039 311.618C109.945 311.73 109.833 311.786 109.703 311.786C109.619 311.786 109.539 311.772 109.465 311.744C109.399 311.716 109.32 311.669 109.227 311.604C108.443 310.997 107.696 310.694 106.987 310.694C106.212 310.694 105.61 311.053 105.181 311.772C104.751 312.481 104.537 313.475 104.537 314.754V314.782C104.742 314.306 105.073 313.933 105.531 313.662C105.997 313.382 106.52 313.242 107.099 313.242ZM106.833 318.436C107.411 318.436 107.873 318.254 108.219 317.89C108.573 317.517 108.751 317.027 108.751 316.42C108.751 315.823 108.573 315.342 108.219 314.978C107.873 314.605 107.411 314.418 106.833 314.418C106.245 314.418 105.764 314.605 105.391 314.978C105.027 315.342 104.845 315.823 104.845 316.42C104.845 317.027 105.027 317.517 105.391 317.89C105.755 318.254 106.235 318.436 106.833 318.436Z" fill="#535261"/>
<path d="M146.44 106.106C146.505 105.919 146.608 105.779 146.748 105.686C146.897 105.593 147.061 105.546 147.238 105.546C147.462 105.546 147.653 105.616 147.812 105.756C147.98 105.896 148.064 106.083 148.064 106.316C148.064 106.4 148.041 106.521 147.994 106.68L144.984 115.01C144.909 115.197 144.783 115.341 144.606 115.444C144.438 115.547 144.251 115.598 144.046 115.598C143.841 115.598 143.649 115.547 143.472 115.444C143.295 115.341 143.173 115.197 143.108 115.01L140.784 108.416L138.418 115.01C138.343 115.197 138.217 115.341 138.04 115.444C137.872 115.547 137.685 115.598 137.48 115.598C137.275 115.598 137.083 115.547 136.906 115.444C136.738 115.341 136.621 115.197 136.556 115.01L133.546 106.68C133.499 106.54 133.476 106.419 133.476 106.316C133.476 106.083 133.56 105.896 133.728 105.756C133.905 105.616 134.111 105.546 134.344 105.546C134.531 105.546 134.699 105.593 134.848 105.686C134.997 105.779 135.105 105.919 135.17 106.106L137.55 112.952L140 106.148C140.065 105.961 140.173 105.817 140.322 105.714C140.471 105.602 140.635 105.546 140.812 105.546C140.989 105.546 141.153 105.602 141.302 105.714C141.461 105.817 141.573 105.966 141.638 106.162L144.018 113.036L146.44 106.106ZM154.066 113.624C154.225 113.624 154.351 113.685 154.444 113.806C154.547 113.927 154.598 114.091 154.598 114.296C154.598 114.585 154.426 114.828 154.08 115.024C153.763 115.201 153.404 115.346 153.002 115.458C152.601 115.561 152.218 115.612 151.854 115.612C150.753 115.612 149.88 115.295 149.236 114.66C148.592 114.025 148.27 113.157 148.27 112.056C148.27 111.356 148.41 110.735 148.69 110.194C148.97 109.653 149.362 109.233 149.866 108.934C150.38 108.635 150.958 108.486 151.602 108.486C152.218 108.486 152.755 108.621 153.212 108.892C153.67 109.163 154.024 109.545 154.276 110.04C154.528 110.535 154.654 111.118 154.654 111.79C154.654 112.191 154.477 112.392 154.122 112.392H149.992C150.048 113.036 150.23 113.512 150.538 113.82C150.846 114.119 151.294 114.268 151.882 114.268C152.181 114.268 152.442 114.231 152.666 114.156C152.9 114.081 153.161 113.979 153.45 113.848C153.73 113.699 153.936 113.624 154.066 113.624ZM151.644 109.718C151.168 109.718 150.786 109.867 150.496 110.166C150.216 110.465 150.048 110.894 149.992 111.454H153.156C153.138 110.885 152.998 110.455 152.736 110.166C152.475 109.867 152.111 109.718 151.644 109.718Z" fill="#FF9138"/>
<path d="M143.112 150.534C143.28 150.534 143.411 150.576 143.504 150.66C143.597 150.744 143.644 150.861 143.644 151.01C143.644 151.337 143.467 151.5 143.112 151.5H137.624C137.465 151.5 137.335 151.453 137.232 151.36C137.129 151.257 137.078 151.136 137.078 150.996C137.078 150.819 137.143 150.665 137.274 150.534L140.648 146.824C141.115 146.301 141.451 145.835 141.656 145.424C141.871 145.004 141.978 144.584 141.978 144.164C141.978 143.623 141.819 143.207 141.502 142.918C141.194 142.629 140.755 142.484 140.186 142.484C139.738 142.484 139.309 142.568 138.898 142.736C138.487 142.895 138.077 143.142 137.666 143.478C137.526 143.59 137.395 143.646 137.274 143.646C137.171 143.646 137.083 143.599 137.008 143.506C136.933 143.403 136.896 143.282 136.896 143.142C136.896 142.946 136.971 142.787 137.12 142.666C137.503 142.311 137.969 142.031 138.52 141.826C139.071 141.621 139.635 141.518 140.214 141.518C141.101 141.518 141.805 141.751 142.328 142.218C142.86 142.685 143.126 143.315 143.126 144.108C143.126 144.677 142.995 145.223 142.734 145.746C142.482 146.269 142.062 146.852 141.474 147.496L138.674 150.534H143.112ZM148.287 141.518C149.481 141.518 150.401 141.933 151.045 142.764C151.698 143.595 152.025 144.78 152.025 146.32C152.025 147.421 151.875 148.369 151.577 149.162C151.278 149.955 150.844 150.562 150.275 150.982C149.705 151.402 149.029 151.612 148.245 151.612C147.713 151.612 147.181 151.509 146.649 151.304C146.126 151.099 145.678 150.819 145.305 150.464C145.146 150.315 145.067 150.156 145.067 149.988C145.067 149.848 145.104 149.731 145.179 149.638C145.253 149.545 145.342 149.498 145.445 149.498C145.575 149.498 145.711 149.549 145.851 149.652C146.663 150.315 147.451 150.646 148.217 150.646C149.047 150.646 149.696 150.268 150.163 149.512C150.629 148.756 150.863 147.697 150.863 146.334V146.152C150.648 146.675 150.298 147.085 149.813 147.384C149.337 147.683 148.795 147.832 148.189 147.832C147.591 147.832 147.059 147.701 146.593 147.44C146.126 147.179 145.762 146.81 145.501 146.334C145.239 145.858 145.109 145.312 145.109 144.696C145.109 144.089 145.244 143.543 145.515 143.058C145.785 142.573 146.163 142.195 146.649 141.924C147.134 141.653 147.68 141.518 148.287 141.518ZM148.357 146.866C149.001 146.866 149.523 146.665 149.925 146.264C150.335 145.853 150.541 145.326 150.541 144.682C150.541 144.029 150.335 143.501 149.925 143.1C149.523 142.689 148.996 142.484 148.343 142.484C147.708 142.484 147.199 142.685 146.817 143.086C146.434 143.487 146.243 144.019 146.243 144.682C146.243 145.345 146.434 145.877 146.817 146.278C147.209 146.67 147.722 146.866 148.357 146.866Z" fill="#7E7D88"/>
<path d="M144.704 187.242C145.292 187.242 145.819 187.377 146.286 187.648C146.753 187.909 147.112 188.278 147.364 188.754C147.625 189.23 147.756 189.776 147.756 190.392C147.756 191.008 147.616 191.563 147.336 192.058C147.056 192.543 146.669 192.926 146.174 193.206C145.689 193.477 145.133 193.612 144.508 193.612C143.285 193.612 142.343 193.197 141.68 192.366C141.027 191.526 140.7 190.331 140.7 188.782C140.7 187.69 140.854 186.752 141.162 185.968C141.47 185.175 141.913 184.568 142.492 184.148C143.071 183.728 143.757 183.518 144.55 183.518C145.082 183.518 145.614 183.616 146.146 183.812C146.678 184.008 147.131 184.279 147.504 184.624C147.691 184.783 147.784 184.969 147.784 185.184C147.784 185.352 147.737 185.497 147.644 185.618C147.551 185.73 147.439 185.786 147.308 185.786C147.224 185.786 147.145 185.772 147.07 185.744C147.005 185.716 146.925 185.669 146.832 185.604C146.048 184.997 145.301 184.694 144.592 184.694C143.817 184.694 143.215 185.053 142.786 185.772C142.357 186.481 142.142 187.475 142.142 188.754V188.782C142.347 188.306 142.679 187.933 143.136 187.662C143.603 187.382 144.125 187.242 144.704 187.242ZM144.438 192.436C145.017 192.436 145.479 192.254 145.824 191.89C146.179 191.517 146.356 191.027 146.356 190.42C146.356 189.823 146.179 189.342 145.824 188.978C145.479 188.605 145.017 188.418 144.438 188.418C143.85 188.418 143.369 188.605 142.996 188.978C142.632 189.342 142.45 189.823 142.45 190.42C142.45 191.027 142.632 191.517 142.996 191.89C143.36 192.254 143.841 192.436 144.438 192.436Z" fill="#535261"/>
<path d="M142.944 234.31C143.168 234.31 143.336 234.361 143.448 234.464C143.56 234.567 143.616 234.711 143.616 234.898C143.616 235.299 143.392 235.5 142.944 235.5H138.268C137.811 235.5 137.582 235.299 137.582 234.898C137.582 234.711 137.638 234.567 137.75 234.464C137.871 234.361 138.044 234.31 138.268 234.31H139.878V227.324L138.436 228.234C138.343 228.29 138.249 228.318 138.156 228.318C137.997 228.318 137.857 228.248 137.736 228.108C137.624 227.968 137.568 227.809 137.568 227.632C137.568 227.417 137.661 227.249 137.848 227.128L140.004 225.756C140.219 225.625 140.424 225.56 140.62 225.56C140.825 225.56 140.993 225.625 141.124 225.756C141.255 225.887 141.32 226.064 141.32 226.288V234.31H142.944ZM150.009 230.432C150.606 230.6 151.059 230.889 151.367 231.3C151.675 231.701 151.829 232.21 151.829 232.826C151.829 233.685 151.525 234.361 150.919 234.856C150.321 235.351 149.509 235.598 148.483 235.598C147.876 235.598 147.293 235.5 146.733 235.304C146.182 235.108 145.715 234.837 145.333 234.492C145.146 234.343 145.053 234.156 145.053 233.932C145.053 233.764 145.099 233.624 145.193 233.512C145.286 233.391 145.398 233.33 145.529 233.33C145.669 233.33 145.827 233.391 146.005 233.512C146.406 233.811 146.798 234.039 147.181 234.198C147.573 234.347 147.993 234.422 148.441 234.422C149.766 234.422 150.429 233.857 150.429 232.728C150.429 232.177 150.251 231.767 149.897 231.496C149.551 231.216 149.024 231.076 148.315 231.076H147.545C147.367 231.076 147.227 231.02 147.125 230.908C147.022 230.787 146.971 230.647 146.971 230.488C146.971 230.339 147.022 230.208 147.125 230.096C147.227 229.975 147.367 229.914 147.545 229.914H148.091C148.772 229.914 149.29 229.774 149.645 229.494C150.009 229.205 150.191 228.785 150.191 228.234C150.191 227.749 150.041 227.371 149.743 227.1C149.453 226.829 149.043 226.694 148.511 226.694C147.727 226.694 146.943 226.997 146.159 227.604C145.981 227.725 145.823 227.786 145.683 227.786C145.552 227.786 145.44 227.73 145.347 227.618C145.253 227.497 145.207 227.352 145.207 227.184C145.207 226.96 145.3 226.773 145.487 226.624C145.869 226.279 146.331 226.008 146.873 225.812C147.423 225.616 147.988 225.518 148.567 225.518C149.491 225.518 150.228 225.751 150.779 226.218C151.329 226.685 151.6 227.31 151.591 228.094C151.591 228.635 151.451 229.116 151.171 229.536C150.891 229.947 150.503 230.245 150.009 230.432Z" fill="#535261"/>
<path d="M143.042 276.31C143.266 276.31 143.434 276.361 143.546 276.464C143.667 276.567 143.728 276.711 143.728 276.898C143.728 277.299 143.499 277.5 143.042 277.5H137.638C137.433 277.5 137.269 277.444 137.148 277.332C137.036 277.211 136.98 277.061 136.98 276.884C136.98 276.669 137.064 276.473 137.232 276.296L140.522 272.698C140.961 272.222 141.278 271.788 141.474 271.396C141.67 271.004 141.768 270.617 141.768 270.234C141.768 269.739 141.623 269.361 141.334 269.1C141.054 268.829 140.653 268.694 140.13 268.694C139.337 268.694 138.548 268.997 137.764 269.604C137.661 269.669 137.573 269.721 137.498 269.758C137.433 269.786 137.363 269.8 137.288 269.8C137.157 269.8 137.045 269.739 136.952 269.618C136.859 269.497 136.812 269.352 136.812 269.184C136.812 268.951 136.905 268.764 137.092 268.624C137.484 268.288 137.955 268.022 138.506 267.826C139.057 267.621 139.612 267.518 140.172 267.518C141.096 267.518 141.829 267.756 142.37 268.232C142.921 268.699 143.196 269.333 143.196 270.136C143.196 270.705 143.07 271.247 142.818 271.76C142.575 272.273 142.165 272.847 141.586 273.482L138.94 276.31H143.042ZM148.595 277.612C147.447 277.612 146.569 277.183 145.963 276.324C145.365 275.465 145.067 274.215 145.067 272.572C145.067 270.92 145.365 269.665 145.963 268.806C146.569 267.947 147.447 267.518 148.595 267.518C149.743 267.518 150.615 267.947 151.213 268.806C151.819 269.655 152.123 270.906 152.123 272.558C152.123 274.21 151.819 275.465 151.213 276.324C150.615 277.183 149.743 277.612 148.595 277.612ZM148.595 276.45C149.313 276.45 149.841 276.137 150.177 275.512C150.513 274.887 150.681 273.902 150.681 272.558C150.681 271.214 150.513 270.234 150.177 269.618C149.841 268.993 149.313 268.68 148.595 268.68C147.876 268.68 147.349 268.993 147.013 269.618C146.677 270.234 146.509 271.214 146.509 272.558C146.509 273.893 146.677 274.877 147.013 275.512C147.349 276.137 147.876 276.45 148.595 276.45Z" fill="#535261"/>
<path d="M143.042 318.31C143.266 318.31 143.434 318.361 143.546 318.464C143.667 318.567 143.728 318.711 143.728 318.898C143.728 319.299 143.499 319.5 143.042 319.5H137.638C137.433 319.5 137.269 319.444 137.148 319.332C137.036 319.211 136.98 319.061 136.98 318.884C136.98 318.669 137.064 318.473 137.232 318.296L140.522 314.698C140.961 314.222 141.278 313.788 141.474 313.396C141.67 313.004 141.768 312.617 141.768 312.234C141.768 311.739 141.623 311.361 141.334 311.1C141.054 310.829 140.653 310.694 140.13 310.694C139.337 310.694 138.548 310.997 137.764 311.604C137.661 311.669 137.573 311.721 137.498 311.758C137.433 311.786 137.363 311.8 137.288 311.8C137.157 311.8 137.045 311.739 136.952 311.618C136.859 311.497 136.812 311.352 136.812 311.184C136.812 310.951 136.905 310.764 137.092 310.624C137.484 310.288 137.955 310.022 138.506 309.826C139.057 309.621 139.612 309.518 140.172 309.518C141.096 309.518 141.829 309.756 142.37 310.232C142.921 310.699 143.196 311.333 143.196 312.136C143.196 312.705 143.07 313.247 142.818 313.76C142.575 314.273 142.165 314.847 141.586 315.482L138.94 318.31H143.042ZM151.437 309.63C151.642 309.63 151.796 309.686 151.899 309.798C152.011 309.91 152.067 310.055 152.067 310.232C152.067 310.4 152.015 310.577 151.913 310.764L147.335 319.22C147.185 319.481 146.98 319.612 146.719 319.612C146.541 319.612 146.378 319.551 146.229 319.43C146.089 319.299 146.019 319.141 146.019 318.954C146.019 318.842 146.056 318.711 146.131 318.562L150.345 310.82H145.795C145.571 310.82 145.403 310.769 145.291 310.666C145.179 310.563 145.123 310.419 145.123 310.232C145.123 309.831 145.347 309.63 145.795 309.63H151.437Z" fill="#535261"/>
<path d="M181.798 115.57C181.518 115.57 181.294 115.491 181.126 115.332C180.967 115.164 180.888 114.945 180.888 114.674V107.114H178.34C177.78 107.114 177.5 106.867 177.5 106.372C177.5 105.877 177.78 105.63 178.34 105.63H185.242C185.802 105.63 186.082 105.877 186.082 106.372C186.082 106.867 185.802 107.114 185.242 107.114H182.694V114.674C182.694 114.945 182.61 115.164 182.442 115.332C182.283 115.491 182.069 115.57 181.798 115.57ZM191.738 108.486C193.344 108.486 194.146 109.424 194.146 111.3V114.744C194.146 115.005 194.067 115.211 193.908 115.36C193.759 115.509 193.549 115.584 193.278 115.584C193.008 115.584 192.793 115.509 192.634 115.36C192.476 115.211 192.396 115.005 192.396 114.744V111.3C192.396 110.805 192.294 110.446 192.088 110.222C191.892 109.989 191.58 109.872 191.15 109.872C190.646 109.872 190.24 110.031 189.932 110.348C189.634 110.665 189.484 111.09 189.484 111.622V114.744C189.484 115.005 189.405 115.211 189.246 115.36C189.088 115.509 188.873 115.584 188.602 115.584C188.332 115.584 188.117 115.509 187.958 115.36C187.809 115.211 187.734 115.005 187.734 114.744V106.372C187.734 106.129 187.814 105.933 187.972 105.784C188.14 105.635 188.355 105.56 188.616 105.56C188.878 105.56 189.088 105.63 189.246 105.77C189.405 105.91 189.484 106.101 189.484 106.344V109.606C189.718 109.242 190.026 108.967 190.408 108.78C190.8 108.584 191.244 108.486 191.738 108.486Z" fill="#FF9138"/>
<path d="M183.516 146.432C184.113 146.6 184.566 146.889 184.874 147.3C185.191 147.711 185.35 148.219 185.35 148.826C185.35 149.685 185.061 150.361 184.482 150.856C183.903 151.351 183.115 151.598 182.116 151.598C181.509 151.598 180.926 151.495 180.366 151.29C179.815 151.085 179.349 150.805 178.966 150.45C178.817 150.31 178.742 150.151 178.742 149.974C178.742 149.834 178.779 149.717 178.854 149.624C178.929 149.531 179.017 149.484 179.12 149.484C179.251 149.484 179.381 149.535 179.512 149.638C179.941 149.983 180.361 150.235 180.772 150.394C181.183 150.553 181.626 150.632 182.102 150.632C182.793 150.632 183.315 150.473 183.67 150.156C184.034 149.839 184.216 149.381 184.216 148.784C184.216 147.58 183.46 146.978 181.948 146.978H181.206C181.057 146.978 180.935 146.931 180.842 146.838C180.758 146.735 180.716 146.619 180.716 146.488C180.716 146.357 180.758 146.245 180.842 146.152C180.935 146.059 181.057 146.012 181.206 146.012H181.724C182.452 146.012 183.012 145.853 183.404 145.536C183.796 145.209 183.992 144.743 183.992 144.136C183.992 143.604 183.833 143.198 183.516 142.918C183.199 142.629 182.751 142.484 182.172 142.484C181.733 142.484 181.309 142.568 180.898 142.736C180.487 142.895 180.077 143.142 179.666 143.478C179.535 143.581 179.405 143.632 179.274 143.632C179.171 143.632 179.083 143.585 179.008 143.492C178.933 143.399 178.896 143.282 178.896 143.142C178.896 142.965 178.971 142.806 179.12 142.666C179.503 142.311 179.965 142.031 180.506 141.826C181.057 141.621 181.621 141.518 182.2 141.518C183.096 141.518 183.81 141.747 184.342 142.204C184.874 142.661 185.135 143.277 185.126 144.052C185.117 144.612 184.967 145.102 184.678 145.522C184.398 145.942 184.011 146.245 183.516 146.432ZM190.595 151.612C189.465 151.612 188.607 151.183 188.019 150.324C187.431 149.465 187.137 148.215 187.137 146.572C187.137 144.92 187.431 143.665 188.019 142.806C188.607 141.947 189.465 141.518 190.595 141.518C191.724 141.518 192.583 141.947 193.171 142.806C193.759 143.655 194.053 144.906 194.053 146.558C194.053 148.21 193.759 149.465 193.171 150.324C192.583 151.183 191.724 151.612 190.595 151.612ZM190.595 150.646C191.379 150.646 191.957 150.315 192.331 149.652C192.704 148.989 192.891 147.958 192.891 146.558C192.891 145.149 192.704 144.117 192.331 143.464C191.967 142.811 191.388 142.484 190.595 142.484C189.811 142.484 189.232 142.815 188.859 143.478C188.485 144.131 188.299 145.158 188.299 146.558C188.299 147.958 188.485 148.989 188.859 149.652C189.232 150.315 189.811 150.646 190.595 150.646Z" fill="#7E7D88"/>
<path d="M189.042 183.63C189.247 183.63 189.401 183.686 189.504 183.798C189.616 183.91 189.672 184.055 189.672 184.232C189.672 184.4 189.621 184.577 189.518 184.764L184.94 193.22C184.791 193.481 184.585 193.612 184.324 193.612C184.147 193.612 183.983 193.551 183.834 193.43C183.694 193.299 183.624 193.141 183.624 192.954C183.624 192.842 183.661 192.711 183.736 192.562L187.95 184.82H183.4C183.176 184.82 183.008 184.769 182.896 184.666C182.784 184.563 182.728 184.419 182.728 184.232C182.728 183.831 182.952 183.63 183.4 183.63H189.042Z" fill="#535261"/>
<path d="M184.944 234.31C185.168 234.31 185.336 234.361 185.448 234.464C185.56 234.567 185.616 234.711 185.616 234.898C185.616 235.299 185.392 235.5 184.944 235.5H180.268C179.811 235.5 179.582 235.299 179.582 234.898C179.582 234.711 179.638 234.567 179.75 234.464C179.871 234.361 180.044 234.31 180.268 234.31H181.878V227.324L180.436 228.234C180.343 228.29 180.249 228.318 180.156 228.318C179.997 228.318 179.857 228.248 179.736 228.108C179.624 227.968 179.568 227.809 179.568 227.632C179.568 227.417 179.661 227.249 179.848 227.128L182.004 225.756C182.219 225.625 182.424 225.56 182.62 225.56C182.825 225.56 182.993 225.625 183.124 225.756C183.255 225.887 183.32 226.064 183.32 226.288V234.31H184.944ZM193.801 232.308C194.258 232.308 194.487 232.499 194.487 232.882C194.487 233.265 194.258 233.456 193.801 233.456H192.905V234.842C192.905 235.075 192.839 235.257 192.709 235.388C192.578 235.509 192.405 235.57 192.191 235.57C191.985 235.57 191.817 235.509 191.687 235.388C191.556 235.257 191.491 235.075 191.491 234.842V233.456H187.557C187.351 233.456 187.193 233.4 187.081 233.288C186.969 233.176 186.913 233.031 186.913 232.854C186.913 232.667 186.973 232.485 187.095 232.308L191.561 225.882C191.71 225.667 191.92 225.56 192.191 225.56C192.387 225.56 192.555 225.625 192.695 225.756C192.835 225.877 192.905 226.055 192.905 226.288V232.308H193.801ZM188.467 232.308H191.491V227.94L188.467 232.308Z" fill="#535261"/>
<path d="M185.042 276.31C185.266 276.31 185.434 276.361 185.546 276.464C185.667 276.567 185.728 276.711 185.728 276.898C185.728 277.299 185.499 277.5 185.042 277.5H179.638C179.433 277.5 179.269 277.444 179.148 277.332C179.036 277.211 178.98 277.061 178.98 276.884C178.98 276.669 179.064 276.473 179.232 276.296L182.522 272.698C182.961 272.222 183.278 271.788 183.474 271.396C183.67 271.004 183.768 270.617 183.768 270.234C183.768 269.739 183.623 269.361 183.334 269.1C183.054 268.829 182.653 268.694 182.13 268.694C181.337 268.694 180.548 268.997 179.764 269.604C179.661 269.669 179.573 269.721 179.498 269.758C179.433 269.786 179.363 269.8 179.288 269.8C179.157 269.8 179.045 269.739 178.952 269.618C178.859 269.497 178.812 269.352 178.812 269.184C178.812 268.951 178.905 268.764 179.092 268.624C179.484 268.288 179.955 268.022 180.506 267.826C181.057 267.621 181.612 267.518 182.172 267.518C183.096 267.518 183.829 267.756 184.37 268.232C184.921 268.699 185.196 269.333 185.196 270.136C185.196 270.705 185.07 271.247 184.818 271.76C184.575 272.273 184.165 272.847 183.586 273.482L180.94 276.31H185.042ZM193.339 276.31C193.563 276.31 193.731 276.361 193.843 276.464C193.955 276.567 194.011 276.711 194.011 276.898C194.011 277.299 193.787 277.5 193.339 277.5H188.663C188.205 277.5 187.977 277.299 187.977 276.898C187.977 276.711 188.033 276.567 188.145 276.464C188.266 276.361 188.439 276.31 188.663 276.31H190.273V269.324L188.831 270.234C188.737 270.29 188.644 270.318 188.551 270.318C188.392 270.318 188.252 270.248 188.131 270.108C188.019 269.968 187.963 269.809 187.963 269.632C187.963 269.417 188.056 269.249 188.243 269.128L190.399 267.756C190.613 267.625 190.819 267.56 191.015 267.56C191.22 267.56 191.388 267.625 191.519 267.756C191.649 267.887 191.715 268.064 191.715 268.288V276.31H193.339Z" fill="#535261"/>
<path d="M185.042 318.31C185.266 318.31 185.434 318.361 185.546 318.464C185.667 318.567 185.728 318.711 185.728 318.898C185.728 319.299 185.499 319.5 185.042 319.5H179.638C179.433 319.5 179.269 319.444 179.148 319.332C179.036 319.211 178.98 319.061 178.98 318.884C178.98 318.669 179.064 318.473 179.232 318.296L182.522 314.698C182.961 314.222 183.278 313.788 183.474 313.396C183.67 313.004 183.768 312.617 183.768 312.234C183.768 311.739 183.623 311.361 183.334 311.1C183.054 310.829 182.653 310.694 182.13 310.694C181.337 310.694 180.548 310.997 179.764 311.604C179.661 311.669 179.573 311.721 179.498 311.758C179.433 311.786 179.363 311.8 179.288 311.8C179.157 311.8 179.045 311.739 178.952 311.618C178.859 311.497 178.812 311.352 178.812 311.184C178.812 310.951 178.905 310.764 179.092 310.624C179.484 310.288 179.955 310.022 180.506 309.826C181.057 309.621 181.612 309.518 182.172 309.518C183.096 309.518 183.829 309.756 184.37 310.232C184.921 310.699 185.196 311.333 185.196 312.136C185.196 312.705 185.07 313.247 184.818 313.76C184.575 314.273 184.165 314.847 183.586 315.482L180.94 318.31H185.042ZM192.387 314.432C192.965 314.6 193.413 314.899 193.731 315.328C194.048 315.757 194.207 316.271 194.207 316.868C194.207 317.727 193.889 318.399 193.255 318.884C192.629 319.36 191.743 319.598 190.595 319.598C189.447 319.598 188.555 319.36 187.921 318.884C187.295 318.399 186.983 317.727 186.983 316.868C186.983 316.261 187.141 315.743 187.459 315.314C187.785 314.885 188.238 314.591 188.817 314.432C188.322 314.245 187.93 313.951 187.641 313.55C187.361 313.149 187.221 312.682 187.221 312.15C187.221 311.338 187.519 310.699 188.117 310.232C188.714 309.756 189.54 309.518 190.595 309.518C191.649 309.518 192.475 309.756 193.073 310.232C193.67 310.699 193.969 311.338 193.969 312.15C193.969 312.682 193.824 313.153 193.535 313.564C193.255 313.965 192.872 314.255 192.387 314.432ZM190.595 310.68C189.941 310.68 189.447 310.82 189.111 311.1C188.775 311.371 188.607 311.763 188.607 312.276C188.607 312.808 188.775 313.214 189.111 313.494C189.447 313.774 189.941 313.914 190.595 313.914C191.248 313.914 191.743 313.774 192.079 313.494C192.415 313.214 192.583 312.808 192.583 312.276C192.583 311.763 192.415 311.371 192.079 311.1C191.743 310.82 191.248 310.68 190.595 310.68ZM190.595 318.436C192.079 318.436 192.821 317.881 192.821 316.77C192.821 315.65 192.079 315.09 190.595 315.09C189.111 315.09 188.369 315.65 188.369 316.77C188.369 317.881 189.111 318.436 190.595 318.436Z" fill="#535261"/>
<path d="M223.46 115.584C223.189 115.584 222.97 115.5 222.802 115.332C222.643 115.164 222.564 114.945 222.564 114.674V106.484C222.564 106.213 222.639 106.003 222.788 105.854C222.947 105.705 223.161 105.63 223.432 105.63H228.346C228.915 105.63 229.2 105.873 229.2 106.358C229.2 106.834 228.915 107.072 228.346 107.072H224.342V109.76H228.066C228.635 109.76 228.92 110.003 228.92 110.488C228.92 110.964 228.635 111.202 228.066 111.202H224.342V114.674C224.342 114.945 224.263 115.164 224.104 115.332C223.945 115.5 223.731 115.584 223.46 115.584ZM234.025 108.514C234.268 108.495 234.459 108.547 234.599 108.668C234.739 108.789 234.809 108.971 234.809 109.214C234.809 109.466 234.748 109.653 234.627 109.774C234.506 109.895 234.286 109.975 233.969 110.012L233.549 110.054C232.998 110.11 232.592 110.297 232.331 110.614C232.079 110.931 231.953 111.328 231.953 111.804V114.744C231.953 115.015 231.869 115.225 231.701 115.374C231.533 115.514 231.323 115.584 231.071 115.584C230.819 115.584 230.609 115.514 230.441 115.374C230.282 115.225 230.203 115.015 230.203 114.744V109.326C230.203 109.065 230.282 108.864 230.441 108.724C230.609 108.584 230.814 108.514 231.057 108.514C231.3 108.514 231.496 108.584 231.645 108.724C231.794 108.855 231.869 109.046 231.869 109.298V109.858C232.046 109.447 232.308 109.13 232.653 108.906C233.008 108.682 233.4 108.556 233.829 108.528L234.025 108.514Z" fill="#FF9138"/>
<path d="M230.944 150.31C231.168 150.31 231.336 150.361 231.448 150.464C231.56 150.567 231.616 150.711 231.616 150.898C231.616 151.299 231.392 151.5 230.944 151.5H226.268C225.811 151.5 225.582 151.299 225.582 150.898C225.582 150.711 225.638 150.567 225.75 150.464C225.871 150.361 226.044 150.31 226.268 150.31H227.878V143.324L226.436 144.234C226.343 144.29 226.249 144.318 226.156 144.318C225.997 144.318 225.857 144.248 225.736 144.108C225.624 143.968 225.568 143.809 225.568 143.632C225.568 143.417 225.661 143.249 225.848 143.128L228.004 141.756C228.219 141.625 228.424 141.56 228.62 141.56C228.825 141.56 228.993 141.625 229.124 141.756C229.255 141.887 229.32 142.064 229.32 142.288V150.31H230.944Z" fill="#535261"/>
<path d="M229.992 188.432C230.571 188.6 231.019 188.899 231.336 189.328C231.653 189.757 231.812 190.271 231.812 190.868C231.812 191.727 231.495 192.399 230.86 192.884C230.235 193.36 229.348 193.598 228.2 193.598C227.052 193.598 226.161 193.36 225.526 192.884C224.901 192.399 224.588 191.727 224.588 190.868C224.588 190.261 224.747 189.743 225.064 189.314C225.391 188.885 225.843 188.591 226.422 188.432C225.927 188.245 225.535 187.951 225.246 187.55C224.966 187.149 224.826 186.682 224.826 186.15C224.826 185.338 225.125 184.699 225.722 184.232C226.319 183.756 227.145 183.518 228.2 183.518C229.255 183.518 230.081 183.756 230.678 184.232C231.275 184.699 231.574 185.338 231.574 186.15C231.574 186.682 231.429 187.153 231.14 187.564C230.86 187.965 230.477 188.255 229.992 188.432ZM228.2 184.68C227.547 184.68 227.052 184.82 226.716 185.1C226.38 185.371 226.212 185.763 226.212 186.276C226.212 186.808 226.38 187.214 226.716 187.494C227.052 187.774 227.547 187.914 228.2 187.914C228.853 187.914 229.348 187.774 229.684 187.494C230.02 187.214 230.188 186.808 230.188 186.276C230.188 185.763 230.02 185.371 229.684 185.1C229.348 184.82 228.853 184.68 228.2 184.68ZM228.2 192.436C229.684 192.436 230.426 191.881 230.426 190.77C230.426 189.65 229.684 189.09 228.2 189.09C226.716 189.09 225.974 189.65 225.974 190.77C225.974 191.881 226.716 192.436 228.2 192.436Z" fill="#535261"/>
<path d="M226.944 234.31C227.168 234.31 227.336 234.361 227.448 234.464C227.56 234.567 227.616 234.711 227.616 234.898C227.616 235.299 227.392 235.5 226.944 235.5H222.268C221.811 235.5 221.582 235.299 221.582 234.898C221.582 234.711 221.638 234.567 221.75 234.464C221.871 234.361 222.044 234.31 222.268 234.31H223.878V227.324L222.436 228.234C222.343 228.29 222.249 228.318 222.156 228.318C221.997 228.318 221.857 228.248 221.736 228.108C221.624 227.968 221.568 227.809 221.568 227.632C221.568 227.417 221.661 227.249 221.848 227.128L224.004 225.756C224.219 225.625 224.424 225.56 224.62 225.56C224.825 225.56 224.993 225.625 225.124 225.756C225.255 225.887 225.32 226.064 225.32 226.288V234.31H226.944ZM233.043 229.256C233.659 229.256 234.2 229.387 234.667 229.648C235.143 229.909 235.511 230.278 235.773 230.754C236.034 231.23 236.165 231.776 236.165 232.392C236.165 233.017 236.02 233.573 235.731 234.058C235.441 234.543 235.035 234.921 234.513 235.192C233.999 235.463 233.407 235.598 232.735 235.598C232.156 235.598 231.587 235.5 231.027 235.304C230.476 235.108 230.014 234.837 229.641 234.492C229.454 234.333 229.361 234.147 229.361 233.932C229.361 233.764 229.407 233.624 229.501 233.512C229.594 233.391 229.706 233.33 229.837 233.33C229.921 233.33 229.995 233.344 230.061 233.372C230.135 233.4 230.219 233.447 230.313 233.512C230.695 233.811 231.078 234.039 231.461 234.198C231.853 234.347 232.263 234.422 232.693 234.422C233.346 234.422 233.855 234.249 234.219 233.904C234.583 233.549 234.765 233.055 234.765 232.42C234.765 231.813 234.578 231.328 234.205 230.964C233.841 230.6 233.351 230.418 232.735 230.418C232.333 230.418 231.974 230.488 231.657 230.628C231.339 230.759 231.041 230.969 230.761 231.258C230.621 231.389 230.453 231.454 230.257 231.454C230.098 231.454 229.963 231.407 229.851 231.314C229.748 231.211 229.697 231.081 229.697 230.922V226.316C229.697 226.101 229.753 225.933 229.865 225.812C229.986 225.691 230.159 225.63 230.383 225.63H235.199C235.413 225.63 235.581 225.681 235.703 225.784C235.824 225.887 235.885 226.027 235.885 226.204C235.885 226.391 235.824 226.535 235.703 226.638C235.581 226.741 235.413 226.792 235.199 226.792H231.125V229.9C231.638 229.471 232.277 229.256 233.043 229.256Z" fill="#535261"/>
<path d="M227.042 276.31C227.266 276.31 227.434 276.361 227.546 276.464C227.667 276.567 227.728 276.711 227.728 276.898C227.728 277.299 227.499 277.5 227.042 277.5H221.638C221.433 277.5 221.269 277.444 221.148 277.332C221.036 277.211 220.98 277.061 220.98 276.884C220.98 276.669 221.064 276.473 221.232 276.296L224.522 272.698C224.961 272.222 225.278 271.788 225.474 271.396C225.67 271.004 225.768 270.617 225.768 270.234C225.768 269.739 225.623 269.361 225.334 269.1C225.054 268.829 224.653 268.694 224.13 268.694C223.337 268.694 222.548 268.997 221.764 269.604C221.661 269.669 221.573 269.721 221.498 269.758C221.433 269.786 221.363 269.8 221.288 269.8C221.157 269.8 221.045 269.739 220.952 269.618C220.859 269.497 220.812 269.352 220.812 269.184C220.812 268.951 220.905 268.764 221.092 268.624C221.484 268.288 221.955 268.022 222.506 267.826C223.057 267.621 223.612 267.518 224.172 267.518C225.096 267.518 225.829 267.756 226.37 268.232C226.921 268.699 227.196 269.333 227.196 270.136C227.196 270.705 227.07 271.247 226.818 271.76C226.575 272.273 226.165 272.847 225.586 273.482L222.94 276.31H227.042ZM235.437 276.31C235.661 276.31 235.829 276.361 235.941 276.464C236.062 276.567 236.123 276.711 236.123 276.898C236.123 277.299 235.894 277.5 235.437 277.5H230.033C229.827 277.5 229.664 277.444 229.543 277.332C229.431 277.211 229.375 277.061 229.375 276.884C229.375 276.669 229.459 276.473 229.627 276.296L232.917 272.698C233.355 272.222 233.673 271.788 233.869 271.396C234.065 271.004 234.163 270.617 234.163 270.234C234.163 269.739 234.018 269.361 233.729 269.1C233.449 268.829 233.047 268.694 232.525 268.694C231.731 268.694 230.943 268.997 230.159 269.604C230.056 269.669 229.967 269.721 229.893 269.758C229.827 269.786 229.757 269.8 229.683 269.8C229.552 269.8 229.44 269.739 229.347 269.618C229.253 269.497 229.207 269.352 229.207 269.184C229.207 268.951 229.3 268.764 229.487 268.624C229.879 268.288 230.35 268.022 230.901 267.826C231.451 267.621 232.007 267.518 232.567 267.518C233.491 267.518 234.223 267.756 234.765 268.232C235.315 268.699 235.591 269.333 235.591 270.136C235.591 270.705 235.465 271.247 235.213 271.76C234.97 272.273 234.559 272.847 233.981 273.482L231.335 276.31H235.437Z" fill="#535261"/>
<path d="M227.042 318.31C227.266 318.31 227.434 318.361 227.546 318.464C227.667 318.567 227.728 318.711 227.728 318.898C227.728 319.299 227.499 319.5 227.042 319.5H221.638C221.433 319.5 221.269 319.444 221.148 319.332C221.036 319.211 220.98 319.061 220.98 318.884C220.98 318.669 221.064 318.473 221.232 318.296L224.522 314.698C224.961 314.222 225.278 313.788 225.474 313.396C225.67 313.004 225.768 312.617 225.768 312.234C225.768 311.739 225.623 311.361 225.334 311.1C225.054 310.829 224.653 310.694 224.13 310.694C223.337 310.694 222.548 310.997 221.764 311.604C221.661 311.669 221.573 311.721 221.498 311.758C221.433 311.786 221.363 311.8 221.288 311.8C221.157 311.8 221.045 311.739 220.952 311.618C220.859 311.497 220.812 311.352 220.812 311.184C220.812 310.951 220.905 310.764 221.092 310.624C221.484 310.288 221.955 310.022 222.506 309.826C223.057 309.621 223.612 309.518 224.172 309.518C225.096 309.518 225.829 309.756 226.37 310.232C226.921 310.699 227.196 311.333 227.196 312.136C227.196 312.705 227.07 313.247 226.818 313.76C226.575 314.273 226.165 314.847 225.586 315.482L222.94 318.31H227.042ZM232.287 309.518C233.509 309.518 234.447 309.938 235.101 310.778C235.763 311.609 236.095 312.799 236.095 314.348C236.095 315.44 235.941 316.383 235.633 317.176C235.325 317.96 234.881 318.562 234.303 318.982C233.724 319.402 233.038 319.612 232.245 319.612C231.713 319.612 231.181 319.514 230.649 319.318C230.117 319.122 229.664 318.851 229.291 318.506C229.104 318.347 229.011 318.161 229.011 317.946C229.011 317.778 229.057 317.638 229.151 317.526C229.244 317.405 229.356 317.344 229.487 317.344C229.571 317.344 229.645 317.358 229.711 317.386C229.785 317.414 229.869 317.461 229.963 317.526C230.747 318.133 231.493 318.436 232.203 318.436C232.977 318.436 233.579 318.081 234.009 317.372C234.438 316.653 234.653 315.655 234.653 314.376V314.348C234.447 314.824 234.111 315.202 233.645 315.482C233.187 315.753 232.669 315.888 232.091 315.888C231.503 315.888 230.975 315.757 230.509 315.496C230.042 315.225 229.678 314.852 229.417 314.376C229.165 313.9 229.039 313.354 229.039 312.738C229.039 312.122 229.179 311.571 229.459 311.086C229.739 310.591 230.121 310.209 230.607 309.938C231.101 309.658 231.661 309.518 232.287 309.518ZM232.357 314.712C232.945 314.712 233.421 314.53 233.785 314.166C234.158 313.793 234.345 313.307 234.345 312.71C234.345 312.103 234.163 311.618 233.799 311.254C233.435 310.881 232.954 310.694 232.357 310.694C231.778 310.694 231.311 310.881 230.957 311.254C230.611 311.618 230.439 312.103 230.439 312.71C230.439 313.307 230.611 313.793 230.957 314.166C231.311 314.53 231.778 314.712 232.357 314.712Z" fill="#535261"/>
<path d="M266.48 115.626C265.761 115.626 265.08 115.533 264.436 115.346C263.801 115.15 263.283 114.889 262.882 114.562C262.667 114.403 262.56 114.179 262.56 113.89C262.56 113.694 262.616 113.526 262.728 113.386C262.849 113.237 262.989 113.162 263.148 113.162C263.316 113.162 263.507 113.227 263.722 113.358C264.123 113.647 264.543 113.857 264.982 113.988C265.421 114.119 265.906 114.184 266.438 114.184C267.119 114.184 267.642 114.067 268.006 113.834C268.37 113.591 268.552 113.241 268.552 112.784C268.552 112.429 268.379 112.159 268.034 111.972C267.698 111.776 267.133 111.589 266.34 111.412C265.519 111.235 264.851 111.029 264.338 110.796C263.825 110.563 263.437 110.264 263.176 109.9C262.915 109.536 262.784 109.074 262.784 108.514C262.784 107.935 262.947 107.417 263.274 106.96C263.601 106.503 264.053 106.148 264.632 105.896C265.22 105.635 265.878 105.504 266.606 105.504C267.941 105.504 269.028 105.859 269.868 106.568C269.989 106.671 270.073 106.773 270.12 106.876C270.176 106.969 270.204 107.091 270.204 107.24C270.204 107.436 270.143 107.609 270.022 107.758C269.91 107.898 269.775 107.968 269.616 107.968C269.523 107.968 269.434 107.954 269.35 107.926C269.275 107.898 269.173 107.847 269.042 107.772C268.659 107.492 268.286 107.287 267.922 107.156C267.567 107.016 267.129 106.946 266.606 106.946C265.971 106.946 265.467 107.077 265.094 107.338C264.73 107.59 264.548 107.945 264.548 108.402C264.548 108.785 264.711 109.079 265.038 109.284C265.365 109.489 265.92 109.681 266.704 109.858C267.535 110.045 268.207 110.255 268.72 110.488C269.243 110.712 269.639 111.001 269.91 111.356C270.19 111.711 270.33 112.154 270.33 112.686C270.33 113.265 270.167 113.778 269.84 114.226C269.523 114.665 269.07 115.01 268.482 115.262C267.903 115.505 267.236 115.626 266.48 115.626ZM274.806 108.486C275.758 108.486 276.462 108.724 276.92 109.2C277.386 109.667 277.62 110.381 277.62 111.342V114.758C277.62 115.01 277.545 115.211 277.396 115.36C277.246 115.5 277.041 115.57 276.78 115.57C276.537 115.57 276.336 115.495 276.178 115.346C276.028 115.197 275.954 115.001 275.954 114.758V114.45C275.795 114.814 275.543 115.099 275.198 115.304C274.862 115.509 274.47 115.612 274.022 115.612C273.564 115.612 273.149 115.519 272.776 115.332C272.402 115.145 272.108 114.889 271.894 114.562C271.679 114.235 271.572 113.871 271.572 113.47C271.572 112.966 271.698 112.569 271.95 112.28C272.211 111.991 272.631 111.781 273.21 111.65C273.788 111.519 274.586 111.454 275.604 111.454H275.954V111.132C275.954 110.675 275.856 110.343 275.66 110.138C275.464 109.923 275.146 109.816 274.708 109.816C274.437 109.816 274.162 109.858 273.882 109.942C273.602 110.017 273.27 110.129 272.888 110.278C272.645 110.399 272.468 110.46 272.356 110.46C272.188 110.46 272.048 110.399 271.936 110.278C271.833 110.157 271.782 109.998 271.782 109.802C271.782 109.643 271.819 109.508 271.894 109.396C271.978 109.275 272.113 109.163 272.3 109.06C272.626 108.883 273.014 108.743 273.462 108.64C273.919 108.537 274.367 108.486 274.806 108.486ZM274.372 114.352C274.838 114.352 275.216 114.198 275.506 113.89C275.804 113.573 275.954 113.167 275.954 112.672V112.378H275.702C275.076 112.378 274.591 112.406 274.246 112.462C273.9 112.518 273.653 112.616 273.504 112.756C273.354 112.896 273.28 113.087 273.28 113.33C273.28 113.629 273.382 113.876 273.588 114.072C273.802 114.259 274.064 114.352 274.372 114.352Z" fill="#FF9138"/>
<path d="M273.042 150.31C273.266 150.31 273.434 150.361 273.546 150.464C273.667 150.567 273.728 150.711 273.728 150.898C273.728 151.299 273.499 151.5 273.042 151.5H267.638C267.433 151.5 267.269 151.444 267.148 151.332C267.036 151.211 266.98 151.061 266.98 150.884C266.98 150.669 267.064 150.473 267.232 150.296L270.522 146.698C270.961 146.222 271.278 145.788 271.474 145.396C271.67 145.004 271.768 144.617 271.768 144.234C271.768 143.739 271.623 143.361 271.334 143.1C271.054 142.829 270.653 142.694 270.13 142.694C269.337 142.694 268.548 142.997 267.764 143.604C267.661 143.669 267.573 143.721 267.498 143.758C267.433 143.786 267.363 143.8 267.288 143.8C267.157 143.8 267.045 143.739 266.952 143.618C266.859 143.497 266.812 143.352 266.812 143.184C266.812 142.951 266.905 142.764 267.092 142.624C267.484 142.288 267.955 142.022 268.506 141.826C269.057 141.621 269.612 141.518 270.172 141.518C271.096 141.518 271.829 141.756 272.37 142.232C272.921 142.699 273.196 143.333 273.196 144.136C273.196 144.705 273.07 145.247 272.818 145.76C272.575 146.273 272.165 146.847 271.586 147.482L268.94 150.31H273.042Z" fill="#535261"/>
<path d="M269.892 183.518C271.115 183.518 272.053 183.938 272.706 184.778C273.369 185.609 273.7 186.799 273.7 188.348C273.7 189.44 273.546 190.383 273.238 191.176C272.93 191.96 272.487 192.562 271.908 192.982C271.329 193.402 270.643 193.612 269.85 193.612C269.318 193.612 268.786 193.514 268.254 193.318C267.722 193.122 267.269 192.851 266.896 192.506C266.709 192.347 266.616 192.161 266.616 191.946C266.616 191.778 266.663 191.638 266.756 191.526C266.849 191.405 266.961 191.344 267.092 191.344C267.176 191.344 267.251 191.358 267.316 191.386C267.391 191.414 267.475 191.461 267.568 191.526C268.352 192.133 269.099 192.436 269.808 192.436C270.583 192.436 271.185 192.081 271.614 191.372C272.043 190.653 272.258 189.655 272.258 188.376V188.348C272.053 188.824 271.717 189.202 271.25 189.482C270.793 189.753 270.275 189.888 269.696 189.888C269.108 189.888 268.581 189.757 268.114 189.496C267.647 189.225 267.283 188.852 267.022 188.376C266.77 187.9 266.644 187.354 266.644 186.738C266.644 186.122 266.784 185.571 267.064 185.086C267.344 184.591 267.727 184.209 268.212 183.938C268.707 183.658 269.267 183.518 269.892 183.518ZM269.962 188.712C270.55 188.712 271.026 188.53 271.39 188.166C271.763 187.793 271.95 187.307 271.95 186.71C271.95 186.103 271.768 185.618 271.404 185.254C271.04 184.881 270.559 184.694 269.962 184.694C269.383 184.694 268.917 184.881 268.562 185.254C268.217 185.618 268.044 186.103 268.044 186.71C268.044 187.307 268.217 187.793 268.562 188.166C268.917 188.53 269.383 188.712 269.962 188.712Z" fill="#535261"/>
<path d="M268.944 234.31C269.168 234.31 269.336 234.361 269.448 234.464C269.56 234.567 269.616 234.711 269.616 234.898C269.616 235.299 269.392 235.5 268.944 235.5H264.268C263.811 235.5 263.582 235.299 263.582 234.898C263.582 234.711 263.638 234.567 263.75 234.464C263.871 234.361 264.044 234.31 264.268 234.31H265.878V227.324L264.436 228.234C264.343 228.29 264.249 228.318 264.156 228.318C263.997 228.318 263.857 228.248 263.736 228.108C263.624 227.968 263.568 227.809 263.568 227.632C263.568 227.417 263.661 227.249 263.848 227.128L266.004 225.756C266.219 225.625 266.424 225.56 266.62 225.56C266.825 225.56 266.993 225.625 267.124 225.756C267.255 225.887 267.32 226.064 267.32 226.288V234.31H268.944ZM275.099 229.242C275.687 229.242 276.214 229.377 276.681 229.648C277.147 229.909 277.507 230.278 277.759 230.754C278.02 231.23 278.151 231.776 278.151 232.392C278.151 233.008 278.011 233.563 277.731 234.058C277.451 234.543 277.063 234.926 276.569 235.206C276.083 235.477 275.528 235.612 274.903 235.612C273.68 235.612 272.737 235.197 272.075 234.366C271.421 233.526 271.095 232.331 271.095 230.782C271.095 229.69 271.249 228.752 271.557 227.968C271.865 227.175 272.308 226.568 272.887 226.148C273.465 225.728 274.151 225.518 274.945 225.518C275.477 225.518 276.009 225.616 276.541 225.812C277.073 226.008 277.525 226.279 277.899 226.624C278.085 226.783 278.179 226.969 278.179 227.184C278.179 227.352 278.132 227.497 278.039 227.618C277.945 227.73 277.833 227.786 277.703 227.786C277.619 227.786 277.539 227.772 277.465 227.744C277.399 227.716 277.32 227.669 277.227 227.604C276.443 226.997 275.696 226.694 274.987 226.694C274.212 226.694 273.61 227.053 273.181 227.772C272.751 228.481 272.537 229.475 272.537 230.754V230.782C272.742 230.306 273.073 229.933 273.531 229.662C273.997 229.382 274.52 229.242 275.099 229.242ZM274.833 234.436C275.411 234.436 275.873 234.254 276.219 233.89C276.573 233.517 276.751 233.027 276.751 232.42C276.751 231.823 276.573 231.342 276.219 230.978C275.873 230.605 275.411 230.418 274.833 230.418C274.245 230.418 273.764 230.605 273.391 230.978C273.027 231.342 272.845 231.823 272.845 232.42C272.845 233.027 273.027 233.517 273.391 233.89C273.755 234.254 274.235 234.436 274.833 234.436Z" fill="#535261"/>
<path d="M269.042 276.31C269.266 276.31 269.434 276.361 269.546 276.464C269.667 276.567 269.728 276.711 269.728 276.898C269.728 277.299 269.499 277.5 269.042 277.5H263.638C263.433 277.5 263.269 277.444 263.148 277.332C263.036 277.211 262.98 277.061 262.98 276.884C262.98 276.669 263.064 276.473 263.232 276.296L266.522 272.698C266.961 272.222 267.278 271.788 267.474 271.396C267.67 271.004 267.768 270.617 267.768 270.234C267.768 269.739 267.623 269.361 267.334 269.1C267.054 268.829 266.653 268.694 266.13 268.694C265.337 268.694 264.548 268.997 263.764 269.604C263.661 269.669 263.573 269.721 263.498 269.758C263.433 269.786 263.363 269.8 263.288 269.8C263.157 269.8 263.045 269.739 262.952 269.618C262.859 269.497 262.812 269.352 262.812 269.184C262.812 268.951 262.905 268.764 263.092 268.624C263.484 268.288 263.955 268.022 264.506 267.826C265.057 267.621 265.612 267.518 266.172 267.518C267.096 267.518 267.829 267.756 268.37 268.232C268.921 268.699 269.196 269.333 269.196 270.136C269.196 270.705 269.07 271.247 268.818 271.76C268.575 272.273 268.165 272.847 267.586 273.482L264.94 276.31H269.042ZM276.009 272.432C276.606 272.6 277.059 272.889 277.367 273.3C277.675 273.701 277.829 274.21 277.829 274.826C277.829 275.685 277.525 276.361 276.919 276.856C276.321 277.351 275.509 277.598 274.483 277.598C273.876 277.598 273.293 277.5 272.733 277.304C272.182 277.108 271.715 276.837 271.333 276.492C271.146 276.343 271.053 276.156 271.053 275.932C271.053 275.764 271.099 275.624 271.193 275.512C271.286 275.391 271.398 275.33 271.529 275.33C271.669 275.33 271.827 275.391 272.005 275.512C272.406 275.811 272.798 276.039 273.181 276.198C273.573 276.347 273.993 276.422 274.441 276.422C275.766 276.422 276.429 275.857 276.429 274.728C276.429 274.177 276.251 273.767 275.897 273.496C275.551 273.216 275.024 273.076 274.315 273.076H273.545C273.367 273.076 273.227 273.02 273.125 272.908C273.022 272.787 272.971 272.647 272.971 272.488C272.971 272.339 273.022 272.208 273.125 272.096C273.227 271.975 273.367 271.914 273.545 271.914H274.091C274.772 271.914 275.29 271.774 275.645 271.494C276.009 271.205 276.191 270.785 276.191 270.234C276.191 269.749 276.041 269.371 275.743 269.1C275.453 268.829 275.043 268.694 274.511 268.694C273.727 268.694 272.943 268.997 272.159 269.604C271.981 269.725 271.823 269.786 271.683 269.786C271.552 269.786 271.44 269.73 271.347 269.618C271.253 269.497 271.207 269.352 271.207 269.184C271.207 268.96 271.3 268.773 271.487 268.624C271.869 268.279 272.331 268.008 272.873 267.812C273.423 267.616 273.988 267.518 274.567 267.518C275.491 267.518 276.228 267.751 276.779 268.218C277.329 268.685 277.6 269.31 277.591 270.094C277.591 270.635 277.451 271.116 277.171 271.536C276.891 271.947 276.503 272.245 276.009 272.432Z" fill="#535261"/>
<path d="M267.614 314.432C268.211 314.6 268.664 314.889 268.972 315.3C269.28 315.701 269.434 316.21 269.434 316.826C269.434 317.685 269.131 318.361 268.524 318.856C267.927 319.351 267.115 319.598 266.088 319.598C265.481 319.598 264.898 319.5 264.338 319.304C263.787 319.108 263.321 318.837 262.938 318.492C262.751 318.343 262.658 318.156 262.658 317.932C262.658 317.764 262.705 317.624 262.798 317.512C262.891 317.391 263.003 317.33 263.134 317.33C263.274 317.33 263.433 317.391 263.61 317.512C264.011 317.811 264.403 318.039 264.786 318.198C265.178 318.347 265.598 318.422 266.046 318.422C267.371 318.422 268.034 317.857 268.034 316.728C268.034 316.177 267.857 315.767 267.502 315.496C267.157 315.216 266.629 315.076 265.92 315.076H265.15C264.973 315.076 264.833 315.02 264.73 314.908C264.627 314.787 264.576 314.647 264.576 314.488C264.576 314.339 264.627 314.208 264.73 314.096C264.833 313.975 264.973 313.914 265.15 313.914H265.696C266.377 313.914 266.895 313.774 267.25 313.494C267.614 313.205 267.796 312.785 267.796 312.234C267.796 311.749 267.647 311.371 267.348 311.1C267.059 310.829 266.648 310.694 266.116 310.694C265.332 310.694 264.548 310.997 263.764 311.604C263.587 311.725 263.428 311.786 263.288 311.786C263.157 311.786 263.045 311.73 262.952 311.618C262.859 311.497 262.812 311.352 262.812 311.184C262.812 310.96 262.905 310.773 263.092 310.624C263.475 310.279 263.937 310.008 264.478 309.812C265.029 309.616 265.593 309.518 266.172 309.518C267.096 309.518 267.833 309.751 268.384 310.218C268.935 310.685 269.205 311.31 269.196 312.094C269.196 312.635 269.056 313.116 268.776 313.536C268.496 313.947 268.109 314.245 267.614 314.432ZM274.595 319.612C273.447 319.612 272.569 319.183 271.963 318.324C271.365 317.465 271.067 316.215 271.067 314.572C271.067 312.92 271.365 311.665 271.963 310.806C272.569 309.947 273.447 309.518 274.595 309.518C275.743 309.518 276.615 309.947 277.213 310.806C277.819 311.655 278.123 312.906 278.123 314.558C278.123 316.21 277.819 317.465 277.213 318.324C276.615 319.183 275.743 319.612 274.595 319.612ZM274.595 318.45C275.313 318.45 275.841 318.137 276.177 317.512C276.513 316.887 276.681 315.902 276.681 314.558C276.681 313.214 276.513 312.234 276.177 311.618C275.841 310.993 275.313 310.68 274.595 310.68C273.876 310.68 273.349 310.993 273.013 311.618C272.677 312.234 272.509 313.214 272.509 314.558C272.509 315.893 272.677 316.877 273.013 317.512C273.349 318.137 273.876 318.45 274.595 318.45Z" fill="#535261"/>
<path d="M307.98 115.626C307.261 115.626 306.58 115.533 305.936 115.346C305.301 115.15 304.783 114.889 304.382 114.562C304.167 114.403 304.06 114.179 304.06 113.89C304.06 113.694 304.116 113.526 304.228 113.386C304.349 113.237 304.489 113.162 304.648 113.162C304.816 113.162 305.007 113.227 305.222 113.358C305.623 113.647 306.043 113.857 306.482 113.988C306.921 114.119 307.406 114.184 307.938 114.184C308.619 114.184 309.142 114.067 309.506 113.834C309.87 113.591 310.052 113.241 310.052 112.784C310.052 112.429 309.879 112.159 309.534 111.972C309.198 111.776 308.633 111.589 307.84 111.412C307.019 111.235 306.351 111.029 305.838 110.796C305.325 110.563 304.937 110.264 304.676 109.9C304.415 109.536 304.284 109.074 304.284 108.514C304.284 107.935 304.447 107.417 304.774 106.96C305.101 106.503 305.553 106.148 306.132 105.896C306.72 105.635 307.378 105.504 308.106 105.504C309.441 105.504 310.528 105.859 311.368 106.568C311.489 106.671 311.573 106.773 311.62 106.876C311.676 106.969 311.704 107.091 311.704 107.24C311.704 107.436 311.643 107.609 311.522 107.758C311.41 107.898 311.275 107.968 311.116 107.968C311.023 107.968 310.934 107.954 310.85 107.926C310.775 107.898 310.673 107.847 310.542 107.772C310.159 107.492 309.786 107.287 309.422 107.156C309.067 107.016 308.629 106.946 308.106 106.946C307.471 106.946 306.967 107.077 306.594 107.338C306.23 107.59 306.048 107.945 306.048 108.402C306.048 108.785 306.211 109.079 306.538 109.284C306.865 109.489 307.42 109.681 308.204 109.858C309.035 110.045 309.707 110.255 310.22 110.488C310.743 110.712 311.139 111.001 311.41 111.356C311.69 111.711 311.83 112.154 311.83 112.686C311.83 113.265 311.667 113.778 311.34 114.226C311.023 114.665 310.57 115.01 309.982 115.262C309.403 115.505 308.736 115.626 307.98 115.626ZM318.742 108.514C319.012 108.514 319.227 108.589 319.386 108.738C319.544 108.887 319.624 109.088 319.624 109.34V114.772C319.624 115.015 319.54 115.211 319.372 115.36C319.213 115.509 319.003 115.584 318.742 115.584C318.49 115.584 318.289 115.514 318.14 115.374C317.99 115.234 317.916 115.043 317.916 114.8V114.45C317.701 114.823 317.412 115.113 317.048 115.318C316.684 115.514 316.273 115.612 315.816 115.612C314.136 115.612 313.296 114.669 313.296 112.784V109.34C313.296 109.088 313.375 108.887 313.534 108.738C313.692 108.589 313.902 108.514 314.164 108.514C314.434 108.514 314.649 108.589 314.808 108.738C314.966 108.887 315.046 109.088 315.046 109.34V112.798C315.046 113.283 315.144 113.643 315.34 113.876C315.536 114.109 315.844 114.226 316.264 114.226C316.749 114.226 317.136 114.067 317.426 113.75C317.724 113.423 317.874 112.994 317.874 112.462V109.34C317.874 109.088 317.953 108.887 318.112 108.738C318.27 108.589 318.48 108.514 318.742 108.514Z" fill="#FF9138"/>
<path d="M313.614 146.432C314.211 146.6 314.664 146.889 314.972 147.3C315.28 147.701 315.434 148.21 315.434 148.826C315.434 149.685 315.131 150.361 314.524 150.856C313.927 151.351 313.115 151.598 312.088 151.598C311.481 151.598 310.898 151.5 310.338 151.304C309.787 151.108 309.321 150.837 308.938 150.492C308.751 150.343 308.658 150.156 308.658 149.932C308.658 149.764 308.705 149.624 308.798 149.512C308.891 149.391 309.003 149.33 309.134 149.33C309.274 149.33 309.433 149.391 309.61 149.512C310.011 149.811 310.403 150.039 310.786 150.198C311.178 150.347 311.598 150.422 312.046 150.422C313.371 150.422 314.034 149.857 314.034 148.728C314.034 148.177 313.857 147.767 313.502 147.496C313.157 147.216 312.629 147.076 311.92 147.076H311.15C310.973 147.076 310.833 147.02 310.73 146.908C310.627 146.787 310.576 146.647 310.576 146.488C310.576 146.339 310.627 146.208 310.73 146.096C310.833 145.975 310.973 145.914 311.15 145.914H311.696C312.377 145.914 312.895 145.774 313.25 145.494C313.614 145.205 313.796 144.785 313.796 144.234C313.796 143.749 313.647 143.371 313.348 143.1C313.059 142.829 312.648 142.694 312.116 142.694C311.332 142.694 310.548 142.997 309.764 143.604C309.587 143.725 309.428 143.786 309.288 143.786C309.157 143.786 309.045 143.73 308.952 143.618C308.859 143.497 308.812 143.352 308.812 143.184C308.812 142.96 308.905 142.773 309.092 142.624C309.475 142.279 309.937 142.008 310.478 141.812C311.029 141.616 311.593 141.518 312.172 141.518C313.096 141.518 313.833 141.751 314.384 142.218C314.935 142.685 315.205 143.31 315.196 144.094C315.196 144.635 315.056 145.116 314.776 145.536C314.496 145.947 314.109 146.245 313.614 146.432Z" fill="#535261"/>
<rect x="294.5" y="171" width="36" height="36" rx="8" fill="white"/>
<path d="M310.944 192.31C311.168 192.31 311.336 192.361 311.448 192.464C311.56 192.567 311.616 192.711 311.616 192.898C311.616 193.299 311.392 193.5 310.944 193.5H306.268C305.811 193.5 305.582 193.299 305.582 192.898C305.582 192.711 305.638 192.567 305.75 192.464C305.871 192.361 306.044 192.31 306.268 192.31H307.878V185.324L306.436 186.234C306.343 186.29 306.249 186.318 306.156 186.318C305.997 186.318 305.857 186.248 305.736 186.108C305.624 185.968 305.568 185.809 305.568 185.632C305.568 185.417 305.661 185.249 305.848 185.128L308.004 183.756C308.219 183.625 308.424 183.56 308.62 183.56C308.825 183.56 308.993 183.625 309.124 183.756C309.255 183.887 309.32 184.064 309.32 184.288V192.31H310.944ZM316.595 193.612C315.447 193.612 314.569 193.183 313.963 192.324C313.365 191.465 313.067 190.215 313.067 188.572C313.067 186.92 313.365 185.665 313.963 184.806C314.569 183.947 315.447 183.518 316.595 183.518C317.743 183.518 318.615 183.947 319.213 184.806C319.819 185.655 320.123 186.906 320.123 188.558C320.123 190.21 319.819 191.465 319.213 192.324C318.615 193.183 317.743 193.612 316.595 193.612ZM316.595 192.45C317.313 192.45 317.841 192.137 318.177 191.512C318.513 190.887 318.681 189.902 318.681 188.558C318.681 187.214 318.513 186.234 318.177 185.618C317.841 184.993 317.313 184.68 316.595 184.68C315.876 184.68 315.349 184.993 315.013 185.618C314.677 186.234 314.509 187.214 314.509 188.558C314.509 189.893 314.677 190.877 315.013 191.512C315.349 192.137 315.876 192.45 316.595 192.45Z" fill="#535261"/>
<path d="M310.944 234.31C311.168 234.31 311.336 234.361 311.448 234.464C311.56 234.567 311.616 234.711 311.616 234.898C311.616 235.299 311.392 235.5 310.944 235.5H306.268C305.811 235.5 305.582 235.299 305.582 234.898C305.582 234.711 305.638 234.567 305.75 234.464C305.871 234.361 306.044 234.31 306.268 234.31H307.878V227.324L306.436 228.234C306.343 228.29 306.249 228.318 306.156 228.318C305.997 228.318 305.857 228.248 305.736 228.108C305.624 227.968 305.568 227.809 305.568 227.632C305.568 227.417 305.661 227.249 305.848 227.128L308.004 225.756C308.219 225.625 308.424 225.56 308.62 225.56C308.825 225.56 308.993 225.625 309.124 225.756C309.255 225.887 309.32 226.064 309.32 226.288V234.31H310.944ZM319.437 225.63C319.642 225.63 319.796 225.686 319.899 225.798C320.011 225.91 320.067 226.055 320.067 226.232C320.067 226.4 320.015 226.577 319.913 226.764L315.335 235.22C315.185 235.481 314.98 235.612 314.719 235.612C314.541 235.612 314.378 235.551 314.229 235.43C314.089 235.299 314.019 235.141 314.019 234.954C314.019 234.842 314.056 234.711 314.131 234.562L318.345 226.82H313.795C313.571 226.82 313.403 226.769 313.291 226.666C313.179 226.563 313.123 226.419 313.123 226.232C313.123 225.831 313.347 225.63 313.795 225.63H319.437Z" fill="#535261"/>
<path d="M311.042 276.31C311.266 276.31 311.434 276.361 311.546 276.464C311.667 276.567 311.728 276.711 311.728 276.898C311.728 277.299 311.499 277.5 311.042 277.5H305.638C305.433 277.5 305.269 277.444 305.148 277.332C305.036 277.211 304.98 277.061 304.98 276.884C304.98 276.669 305.064 276.473 305.232 276.296L308.522 272.698C308.961 272.222 309.278 271.788 309.474 271.396C309.67 271.004 309.768 270.617 309.768 270.234C309.768 269.739 309.623 269.361 309.334 269.1C309.054 268.829 308.653 268.694 308.13 268.694C307.337 268.694 306.548 268.997 305.764 269.604C305.661 269.669 305.573 269.721 305.498 269.758C305.433 269.786 305.363 269.8 305.288 269.8C305.157 269.8 305.045 269.739 304.952 269.618C304.859 269.497 304.812 269.352 304.812 269.184C304.812 268.951 304.905 268.764 305.092 268.624C305.484 268.288 305.955 268.022 306.506 267.826C307.057 267.621 307.612 267.518 308.172 267.518C309.096 267.518 309.829 267.756 310.37 268.232C310.921 268.699 311.196 269.333 311.196 270.136C311.196 270.705 311.07 271.247 310.818 271.76C310.575 272.273 310.165 272.847 309.586 273.482L306.94 276.31H311.042ZM319.801 274.308C320.258 274.308 320.487 274.499 320.487 274.882C320.487 275.265 320.258 275.456 319.801 275.456H318.905V276.842C318.905 277.075 318.839 277.257 318.709 277.388C318.578 277.509 318.405 277.57 318.191 277.57C317.985 277.57 317.817 277.509 317.687 277.388C317.556 277.257 317.491 277.075 317.491 276.842V275.456H313.557C313.351 275.456 313.193 275.4 313.081 275.288C312.969 275.176 312.913 275.031 312.913 274.854C312.913 274.667 312.973 274.485 313.095 274.308L317.561 267.882C317.71 267.667 317.92 267.56 318.191 267.56C318.387 267.56 318.555 267.625 318.695 267.756C318.835 267.877 318.905 268.055 318.905 268.288V274.308H319.801ZM314.467 274.308H317.491V269.94L314.467 274.308Z" fill="#535261"/>
<path d="M309.614 314.432C310.211 314.6 310.664 314.889 310.972 315.3C311.28 315.701 311.434 316.21 311.434 316.826C311.434 317.685 311.131 318.361 310.524 318.856C309.927 319.351 309.115 319.598 308.088 319.598C307.481 319.598 306.898 319.5 306.338 319.304C305.787 319.108 305.321 318.837 304.938 318.492C304.751 318.343 304.658 318.156 304.658 317.932C304.658 317.764 304.705 317.624 304.798 317.512C304.891 317.391 305.003 317.33 305.134 317.33C305.274 317.33 305.433 317.391 305.61 317.512C306.011 317.811 306.403 318.039 306.786 318.198C307.178 318.347 307.598 318.422 308.046 318.422C309.371 318.422 310.034 317.857 310.034 316.728C310.034 316.177 309.857 315.767 309.502 315.496C309.157 315.216 308.629 315.076 307.92 315.076H307.15C306.973 315.076 306.833 315.02 306.73 314.908C306.627 314.787 306.576 314.647 306.576 314.488C306.576 314.339 306.627 314.208 306.73 314.096C306.833 313.975 306.973 313.914 307.15 313.914H307.696C308.377 313.914 308.895 313.774 309.25 313.494C309.614 313.205 309.796 312.785 309.796 312.234C309.796 311.749 309.647 311.371 309.348 311.1C309.059 310.829 308.648 310.694 308.116 310.694C307.332 310.694 306.548 310.997 305.764 311.604C305.587 311.725 305.428 311.786 305.288 311.786C305.157 311.786 305.045 311.73 304.952 311.618C304.859 311.497 304.812 311.352 304.812 311.184C304.812 310.96 304.905 310.773 305.092 310.624C305.475 310.279 305.937 310.008 306.478 309.812C307.029 309.616 307.593 309.518 308.172 309.518C309.096 309.518 309.833 309.751 310.384 310.218C310.935 310.685 311.205 311.31 311.196 312.094C311.196 312.635 311.056 313.116 310.776 313.536C310.496 313.947 310.109 314.245 309.614 314.432ZM319.339 318.31C319.563 318.31 319.731 318.361 319.843 318.464C319.955 318.567 320.011 318.711 320.011 318.898C320.011 319.299 319.787 319.5 319.339 319.5H314.663C314.205 319.5 313.977 319.299 313.977 318.898C313.977 318.711 314.033 318.567 314.145 318.464C314.266 318.361 314.439 318.31 314.663 318.31H316.273V311.324L314.831 312.234C314.737 312.29 314.644 312.318 314.551 312.318C314.392 312.318 314.252 312.248 314.131 312.108C314.019 311.968 313.963 311.809 313.963 311.632C313.963 311.417 314.056 311.249 314.243 311.128L316.399 309.756C316.613 309.625 316.819 309.56 317.015 309.56C317.22 309.56 317.388 309.625 317.519 309.756C317.649 309.887 317.715 310.064 317.715 310.288V318.31H319.339Z" fill="#535261"/>
<rect x="159.5" y="29" width="38" height="40" rx="8" fill="white"/>
<path d="M173.26 42.64C173.559 42.64 173.793 42.736 173.964 42.928C174.145 43.1093 174.236 43.3547 174.236 43.664V53.056C174.236 53.3653 174.145 53.616 173.964 53.808C173.783 54 173.548 54.096 173.26 54.096C172.919 54.096 172.657 53.9733 172.476 53.728L166.636 46.128V53.056C166.636 53.3653 166.551 53.616 166.38 53.808C166.209 54 165.975 54.096 165.676 54.096C165.377 54.096 165.143 54 164.972 53.808C164.801 53.616 164.716 53.3653 164.716 53.056V43.664C164.716 43.3547 164.807 43.1093 164.988 42.928C165.169 42.736 165.409 42.64 165.708 42.64C166.039 42.64 166.295 42.7627 166.476 43.008L172.3 50.576V43.664C172.3 43.3547 172.385 43.1093 172.556 42.928C172.737 42.736 172.972 42.64 173.26 42.64ZM180.061 54.128C179.261 54.128 178.557 53.9627 177.949 53.632C177.352 53.3013 176.888 52.8267 176.557 52.208C176.226 51.5893 176.061 50.8693 176.061 50.048C176.061 49.2267 176.226 48.512 176.557 47.904C176.888 47.2853 177.352 46.8107 177.949 46.48C178.557 46.1493 179.261 45.984 180.061 45.984C180.861 45.984 181.56 46.1493 182.157 46.48C182.765 46.8107 183.229 47.2853 183.549 47.904C183.88 48.512 184.045 49.2267 184.045 50.048C184.045 50.8693 183.88 51.5893 183.549 52.208C183.229 52.8267 182.765 53.3013 182.157 53.632C181.56 53.9627 180.861 54.128 180.061 54.128ZM180.045 52.576C180.696 52.576 181.192 52.3627 181.533 51.936C181.874 51.5093 182.045 50.88 182.045 50.048C182.045 49.2267 181.874 48.6027 181.533 48.176C181.192 47.7387 180.701 47.52 180.061 47.52C179.421 47.52 178.925 47.7387 178.573 48.176C178.232 48.6027 178.061 49.2267 178.061 50.048C178.061 50.88 178.232 51.5093 178.573 51.936C178.914 52.3627 179.405 52.576 180.045 52.576ZM191.027 46.592C191.113 46.4 191.225 46.256 191.363 46.16C191.513 46.064 191.673 46.016 191.843 46.016C192.089 46.016 192.307 46.1013 192.499 46.272C192.702 46.432 192.803 46.6347 192.803 46.88C192.803 47.008 192.771 47.136 192.707 47.264L189.747 53.456C189.651 53.6587 189.513 53.8133 189.331 53.92C189.161 54.0267 188.969 54.08 188.755 54.08C188.553 54.08 188.355 54.0267 188.163 53.92C187.982 53.8133 187.843 53.6587 187.747 53.456L184.771 47.264C184.718 47.1573 184.691 47.0347 184.691 46.896C184.691 46.6507 184.793 46.4427 184.995 46.272C185.209 46.1013 185.449 46.016 185.715 46.016C186.099 46.016 186.382 46.2027 186.563 46.576L188.803 51.52L191.027 46.592Z" fill="#FF7506"/>
<rect x="131.5" y="29" width="28" height="40" rx="8" fill="white"/>
<path d="M144.329 52.336C144.969 52.336 145.289 52.608 145.289 53.152C145.289 53.7173 144.969 54 144.329 54H138.921C138.27 54 137.945 53.7173 137.945 53.152C137.945 52.608 138.27 52.336 138.921 52.336H140.585V45.04L139.049 45.984C138.899 46.0693 138.766 46.112 138.649 46.112C138.425 46.112 138.233 46.016 138.073 45.824C137.923 45.632 137.849 45.4187 137.849 45.184C137.849 44.8747 137.987 44.6347 138.265 44.464L140.745 42.928C141.065 42.736 141.369 42.64 141.657 42.64C141.955 42.64 142.195 42.7307 142.377 42.912C142.558 43.0933 142.649 43.344 142.649 43.664V52.336H144.329ZM150.338 42.576C151.768 42.576 152.866 43.0613 153.634 44.032C154.413 44.992 154.802 46.368 154.802 48.16C154.802 49.3867 154.621 50.4533 154.258 51.36C153.896 52.256 153.373 52.944 152.69 53.424C152.018 53.904 151.224 54.144 150.306 54.144C149.698 54.144 149.085 54.0373 148.466 53.824C147.858 53.6 147.341 53.3013 146.914 52.928C146.776 52.8107 146.674 52.6987 146.61 52.592C146.557 52.4747 146.53 52.336 146.53 52.176C146.53 51.9413 146.594 51.744 146.722 51.584C146.861 51.4133 147.021 51.328 147.202 51.328C147.309 51.328 147.41 51.3493 147.506 51.392C147.602 51.424 147.72 51.4827 147.858 51.568C148.744 52.1867 149.533 52.496 150.226 52.496C151.005 52.496 151.618 52.1387 152.066 51.424C152.514 50.6987 152.749 49.6853 152.77 48.384C152.525 48.864 152.157 49.248 151.666 49.536C151.176 49.8133 150.626 49.952 150.018 49.952C149.346 49.952 148.749 49.8027 148.226 49.504C147.704 49.1947 147.293 48.768 146.994 48.224C146.706 47.6693 146.562 47.04 146.562 46.336C146.562 45.6107 146.722 44.9653 147.042 44.4C147.373 43.824 147.821 43.376 148.386 43.056C148.962 42.736 149.613 42.576 150.338 42.576ZM150.45 48.32C151.048 48.32 151.528 48.1333 151.89 47.76C152.264 47.376 152.45 46.88 152.45 46.272C152.45 45.6533 152.264 45.1573 151.89 44.784C151.528 44.4 151.048 44.208 150.45 44.208C149.864 44.208 149.394 44.4 149.042 44.784C148.69 45.1573 148.514 45.6533 148.514 46.272C148.514 46.8907 148.69 47.3867 149.042 47.76C149.394 48.1333 149.864 48.32 150.45 48.32Z" fill="#FF7506"/>
<rect x="194.5" y="29" width="47" height="40" rx="8" fill="white"/>
<path d="M206.468 52.336C207.108 52.336 207.428 52.608 207.428 53.152C207.428 53.7173 207.108 54 206.468 54H200.388C200.111 54 199.892 53.92 199.732 53.76C199.572 53.5893 199.492 53.3813 199.492 53.136C199.492 52.816 199.615 52.528 199.86 52.272L203.508 48.352C203.956 47.8613 204.281 47.4133 204.484 47.008C204.697 46.592 204.804 46.1813 204.804 45.776C204.804 45.2747 204.66 44.8907 204.372 44.624C204.084 44.3573 203.673 44.224 203.14 44.224C202.703 44.224 202.276 44.3093 201.86 44.48C201.455 44.64 201.044 44.864 200.628 45.152C200.521 45.2267 200.415 45.2907 200.308 45.344C200.201 45.3867 200.095 45.408 199.988 45.408C199.807 45.408 199.647 45.3227 199.508 45.152C199.38 44.9813 199.316 44.7787 199.316 44.544C199.316 44.384 199.343 44.2453 199.396 44.128C199.46 44.0107 199.556 43.8987 199.684 43.792C200.153 43.4187 200.703 43.1253 201.332 42.912C201.961 42.688 202.591 42.576 203.22 42.576C204.319 42.576 205.193 42.8533 205.844 43.408C206.505 43.9627 206.836 44.7093 206.836 45.648C206.836 46.2987 206.697 46.912 206.42 47.488C206.143 48.0533 205.673 48.688 205.012 49.392L202.244 52.336H206.468ZM212.909 54.144C211.576 54.144 210.557 53.6533 209.853 52.672C209.149 51.68 208.797 50.24 208.797 48.352C208.797 46.4747 209.149 45.0453 209.853 44.064C210.557 43.072 211.576 42.576 212.909 42.576C214.243 42.576 215.261 43.072 215.965 44.064C216.669 45.0453 217.021 46.4747 217.021 48.352C217.021 50.2293 216.669 51.664 215.965 52.656C215.261 53.648 214.243 54.144 212.909 54.144ZM212.909 52.528C213.635 52.528 214.163 52.1973 214.493 51.536C214.824 50.864 214.989 49.8027 214.989 48.352C214.989 46.8907 214.824 45.8347 214.493 45.184C214.163 44.5227 213.635 44.192 212.909 44.192C212.184 44.192 211.656 44.5227 211.325 45.184C210.995 45.8453 210.829 46.9013 210.829 48.352C210.829 49.8027 210.995 50.864 211.325 51.536C211.656 52.1973 212.184 52.528 212.909 52.528ZM225.671 52.336C226.311 52.336 226.631 52.608 226.631 53.152C226.631 53.7173 226.311 54 225.671 54H219.591C219.314 54 219.095 53.92 218.935 53.76C218.775 53.5893 218.695 53.3813 218.695 53.136C218.695 52.816 218.818 52.528 219.063 52.272L222.711 48.352C223.159 47.8613 223.484 47.4133 223.687 47.008C223.9 46.592 224.007 46.1813 224.007 45.776C224.007 45.2747 223.863 44.8907 223.575 44.624C223.287 44.3573 222.876 44.224 222.343 44.224C221.906 44.224 221.479 44.3093 221.063 44.48C220.658 44.64 220.247 44.864 219.831 45.152C219.724 45.2267 219.618 45.2907 219.511 45.344C219.404 45.3867 219.298 45.408 219.191 45.408C219.01 45.408 218.85 45.3227 218.711 45.152C218.583 44.9813 218.519 44.7787 218.519 44.544C218.519 44.384 218.546 44.2453 218.599 44.128C218.663 44.0107 218.759 43.8987 218.887 43.792C219.356 43.4187 219.906 43.1253 220.535 42.912C221.164 42.688 221.794 42.576 222.423 42.576C223.522 42.576 224.396 42.8533 225.047 43.408C225.708 43.9627 226.039 44.7093 226.039 45.648C226.039 46.2987 225.9 46.912 225.623 47.488C225.346 48.0533 224.876 48.688 224.215 49.392L221.447 52.336H225.671ZM235.329 52.336C235.969 52.336 236.289 52.608 236.289 53.152C236.289 53.7173 235.969 54 235.329 54H229.921C229.27 54 228.945 53.7173 228.945 53.152C228.945 52.608 229.27 52.336 229.921 52.336H231.585V45.04L230.049 45.984C229.899 46.0693 229.766 46.112 229.649 46.112C229.425 46.112 229.233 46.016 229.073 45.824C228.923 45.632 228.849 45.4187 228.849 45.184C228.849 44.8747 228.987 44.6347 229.265 44.464L231.745 42.928C232.065 42.736 232.369 42.64 232.657 42.64C232.955 42.64 233.195 42.7307 233.377 42.912C233.558 43.0933 233.649 43.344 233.649 43.664V52.336H235.329Z" fill="#FF7506"/>
<rect x="296.5" y="29" width="40" height="40" rx="8" fill="white"/>
<path d="M319.45 48.408L314.733 43.6996C314.656 43.6215 314.564 43.5595 314.462 43.5172C314.361 43.4749 314.252 43.4531 314.142 43.4531C314.032 43.4531 313.923 43.4749 313.821 43.5172C313.72 43.5595 313.627 43.6215 313.55 43.6996C313.395 43.8558 313.308 44.067 313.308 44.2871C313.308 44.5073 313.395 44.7185 313.55 44.8746L317.675 49.0413L313.55 53.1663C313.395 53.3224 313.308 53.5336 313.308 53.7538C313.308 53.9739 313.395 54.1852 313.55 54.3413C313.627 54.42 313.719 54.4827 313.821 54.5256C313.922 54.5685 314.031 54.5908 314.142 54.5913C314.252 54.5908 314.361 54.5685 314.462 54.5256C314.564 54.4827 314.656 54.42 314.733 54.3413L319.45 49.633C319.535 49.5549 319.602 49.4602 319.648 49.3548C319.694 49.2494 319.718 49.1355 319.718 49.0205C319.718 48.9054 319.694 48.7915 319.648 48.6861C319.602 48.5807 319.535 48.486 319.45 48.408Z" fill="#FF7506"/>
<rect x="42.5" y="29" width="40" height="40" rx="8" fill="white"/>
<path d="M59.5833 49.667L64.3333 54.3337C64.6666 54.667 65.1666 54.667 65.4999 54.3337C65.8333 54.0003 65.8333 53.5003 65.4999 53.167L61.4166 49.0003L65.4999 44.8337C65.8333 44.5003 65.8333 44.0003 65.4999 43.667C65.3333 43.5003 65.1666 43.417 64.9166 43.417C64.6666 43.417 64.4999 43.5003 64.3333 43.667L59.5833 48.3337C59.2499 48.7503 59.2499 49.2503 59.5833 49.667C59.5833 49.5837 59.5833 49.5837 59.5833 49.667Z" fill="#FF7506"/>
<path d="M42.5 85H330.5" stroke="#DCDDFD"/>
</g>
<defs>
<filter id="filter0_d_233_8283" x="0" y="0" width="383" height="366" filterUnits="userSpaceOnUse" color-interpolation-filters="sRGB">
<feFlood flood-opacity="0" result="BackgroundImageFix"/>
<feColorMatrix in="SourceAlpha" type="matrix" values="0 0 0 0 0 0 0 0 0 0 0 0 0 0 0 0 0 0 127 0" result="hardAlpha"/>
<feOffset dx="2" dy="2"/>
<feGaussianBlur stdDeviation="7.5"/>
<feComposite in2="hardAlpha" operator="out"/>
<feColorMatrix type="matrix" values="0 0 0 0 0.275 0 0 0 0 0.252083 0 0 0 0 0.263826 0 0 0 0.1 0"/>
<feBlend mode="normal" in2="BackgroundImageFix" result="effect1_dropShadow_233_8283"/>
<feBlend mode="normal" in="SourceGraphic" in2="effect1_dropShadow_233_8283" result="shape"/>
</filter>
</defs>
</svg>
