<svg width="137" height="35" viewBox="0 0 137 35" fill="none" xmlns="http://www.w3.org/2000/svg">
<path d="M18.7313 3.86C19.162 3.86 19.4907 3.996 19.7173 4.268C19.9667 4.51733 20.0913 4.85733 20.0913 5.288V26.742C20.0913 27.1727 19.9667 27.524 19.7173 27.796C19.4907 28.0453 19.162 28.17 18.7313 28.17C18.3007 28.17 17.9607 28.0453 17.7113 27.796C17.462 27.524 17.3373 27.1727 17.3373 26.742V17.018H2.98934V26.742C2.98934 27.1727 2.86468 27.524 2.61534 27.796C2.36601 28.0453 2.02601 28.17 1.59534 28.17C1.16468 28.17 0.824677 28.0453 0.575344 27.796C0.348677 27.524 0.235344 27.1727 0.235344 26.742V5.288C0.235344 4.85733 0.348677 4.51733 0.575344 4.268C0.824677 3.996 1.16468 3.86 1.59534 3.86C2.02601 3.86 2.36601 3.996 2.61534 4.268C2.86468 4.51733 2.98934 4.85733 2.98934 5.288V14.638H17.3373V5.288C17.3373 4.85733 17.462 4.51733 17.7113 4.268C17.9607 3.996 18.3007 3.86 18.7313 3.86ZM38.411 24.158C38.6603 24.158 38.8756 24.26 39.057 24.464C39.2383 24.668 39.329 24.9287 39.329 25.246C39.329 25.8127 38.9323 26.334 38.139 26.81C37.323 27.286 36.4616 27.6487 35.555 27.898C34.6483 28.1247 33.7643 28.238 32.903 28.238C30.3416 28.238 28.313 27.4787 26.817 25.96C25.3436 24.4413 24.607 22.3447 24.607 19.67C24.607 17.97 24.9356 16.474 25.593 15.182C26.2503 13.8673 27.1683 12.8473 28.347 12.122C29.5483 11.3967 30.9083 11.034 32.427 11.034C34.5803 11.034 36.2916 11.7367 37.561 13.142C38.8303 14.5473 39.465 16.4513 39.465 18.854C39.465 19.3073 39.3743 19.636 39.193 19.84C39.0116 20.044 38.717 20.146 38.309 20.146H27.361C27.565 24.0447 29.4123 25.994 32.903 25.994C33.787 25.994 34.5463 25.8807 35.181 25.654C35.8156 25.4047 36.4956 25.076 37.221 24.668C37.8103 24.328 38.207 24.158 38.411 24.158ZM32.461 13.176C31.0103 13.176 29.843 13.6293 28.959 14.536C28.0976 15.4427 27.5876 16.7233 27.429 18.378H37.051C37.0056 16.7007 36.5863 15.42 35.793 14.536C34.9996 13.6293 33.889 13.176 32.461 13.176ZM32.903 34.358C32.3816 34.358 31.9623 34.1993 31.645 33.882C31.3276 33.5873 31.169 33.1907 31.169 32.692C31.169 32.1933 31.3276 31.7853 31.645 31.468C31.9623 31.1733 32.3816 31.026 32.903 31.026C33.4016 31.026 33.8096 31.1733 34.127 31.468C34.467 31.7853 34.637 32.1933 34.637 32.692C34.637 33.1907 34.4783 33.5873 34.161 33.882C33.8436 34.1993 33.4243 34.358 32.903 34.358ZM29.707 8.858C29.503 9.22067 29.197 9.402 28.789 9.402C28.517 9.402 28.279 9.31133 28.075 9.13C27.871 8.926 27.769 8.688 27.769 8.416C27.769 8.16667 27.8483 7.92867 28.007 7.702L31.135 3.078C31.4976 2.534 31.9283 2.262 32.427 2.262C32.9256 2.262 33.3563 2.534 33.719 3.078L36.881 7.702C37.0396 7.92867 37.119 8.15533 37.119 8.382C37.119 8.654 37.0056 8.892 36.779 9.096C36.575 9.3 36.337 9.402 36.065 9.402C35.657 9.402 35.351 9.22067 35.147 8.858L32.427 4.438L29.707 8.858ZM59.9383 25.994C60.7316 26.062 61.1283 26.4247 61.1283 27.082C61.1283 27.4673 60.9809 27.762 60.6863 27.966C60.4143 28.1473 59.9949 28.2153 59.4283 28.17L58.5103 28.102C56.6969 27.966 55.3596 27.422 54.4983 26.47C53.6369 25.518 53.2063 24.0787 53.2063 22.152V13.618H50.9283C50.5429 13.618 50.2369 13.5273 50.0103 13.346C49.8063 13.142 49.7043 12.8813 49.7043 12.564C49.7043 12.224 49.8063 11.952 50.0103 11.748C50.2369 11.544 50.5429 11.442 50.9283 11.442H53.2063V7.6C53.2063 7.16933 53.3309 6.84067 53.5803 6.614C53.8296 6.36467 54.1696 6.24 54.6003 6.24C55.0083 6.24 55.3369 6.36467 55.5863 6.614C55.8356 6.84067 55.9603 7.16933 55.9603 7.6V11.442H59.7343C60.0969 11.442 60.3803 11.544 60.5843 11.748C60.8109 11.952 60.9243 12.224 60.9243 12.564C60.9243 12.8813 60.8109 13.142 60.5843 13.346C60.3803 13.5273 60.0969 13.618 59.7343 13.618H55.9603V22.288C55.9603 23.5347 56.2096 24.4413 56.7083 25.008C57.2296 25.552 58.0003 25.858 59.0203 25.926L59.9383 25.994ZM72.207 11.034C74.1563 11.034 75.6296 11.5893 76.627 12.7C77.6243 13.788 78.123 15.42 78.123 17.596V26.81C78.123 27.2407 77.9983 27.5807 77.749 27.83C77.4996 28.0567 77.171 28.17 76.763 28.17C76.3323 28.17 75.9923 28.0567 75.743 27.83C75.4936 27.5807 75.369 27.2407 75.369 26.81V17.664C75.369 16.1907 75.063 15.1027 74.451 14.4C73.8616 13.6973 72.9096 13.346 71.595 13.346C70.0763 13.346 68.8636 13.8107 67.957 14.74C67.0503 15.6693 66.597 16.9273 66.597 18.514V26.81C66.597 27.2407 66.4723 27.5807 66.223 27.83C65.9963 28.0567 65.6676 28.17 65.237 28.17C64.8063 28.17 64.4663 28.0567 64.217 27.83C63.9676 27.5807 63.843 27.2407 63.843 26.81V5.186C63.843 4.80067 63.9676 4.48333 64.217 4.234C64.489 3.98467 64.829 3.86 65.237 3.86C65.6676 3.86 65.9963 3.98467 66.223 4.234C66.4723 4.46067 66.597 4.778 66.597 5.186V14.094C67.141 13.0967 67.9003 12.3373 68.875 11.816C69.8496 11.2947 70.9603 11.034 72.207 11.034ZM90.0352 28.238C88.4712 28.238 87.0885 27.8867 85.8872 27.184C84.7085 26.4813 83.7905 25.484 83.1332 24.192C82.4985 22.8773 82.1812 21.3587 82.1812 19.636C82.1812 17.9133 82.4985 16.406 83.1332 15.114C83.7905 13.7993 84.7085 12.7907 85.8872 12.088C87.0885 11.3853 88.4712 11.034 90.0352 11.034C91.5992 11.034 92.9819 11.3853 94.1832 12.088C95.3845 12.7907 96.3025 13.7993 96.9372 15.114C97.5945 16.406 97.9232 17.9133 97.9232 19.636C97.9232 21.3587 97.5945 22.8773 96.9372 24.192C96.3025 25.484 95.3845 26.4813 94.1832 27.184C92.9819 27.8867 91.5992 28.238 90.0352 28.238ZM90.0352 25.96C91.6672 25.96 92.9139 25.4273 93.7752 24.362C94.6592 23.274 95.1012 21.6987 95.1012 19.636C95.1012 17.6187 94.6592 16.066 93.7752 14.978C92.8912 13.8673 91.6445 13.312 90.0352 13.312C88.4259 13.312 87.1792 13.8673 86.2952 14.978C85.4112 16.066 84.9692 17.6187 84.9692 19.636C84.9692 21.676 85.3999 23.24 86.2612 24.328C87.1452 25.416 88.4032 25.96 90.0352 25.96ZM94.3192 5.764C94.2059 5.85467 94.0585 5.9 93.8772 5.9C93.6732 5.9 93.4919 5.832 93.3332 5.696C93.1972 5.53733 93.1292 5.356 93.1292 5.152C93.1292 4.97067 93.1859 4.812 93.2992 4.676L95.8832 1.378C96.2232 0.947332 96.5972 0.731998 97.0052 0.731998C97.3452 0.731998 97.6285 0.856666 97.8552 1.106C98.1045 1.33267 98.2292 1.60467 98.2292 1.922C98.2292 2.398 97.9912 2.806 97.5152 3.146L94.3192 5.764ZM87.1112 9.096C86.8845 9.3 86.6465 9.402 86.3972 9.402C86.1252 9.402 85.8872 9.31133 85.6832 9.13C85.4792 8.926 85.3772 8.688 85.3772 8.416C85.3772 8.12133 85.5245 7.838 85.8192 7.566L88.7772 4.608C89.1625 4.24533 89.5819 4.064 90.0352 4.064C90.4432 4.064 90.8625 4.24533 91.2932 4.608L94.2512 7.566C94.5459 7.838 94.6932 8.12133 94.6932 8.416C94.6932 8.688 94.5912 8.926 94.3872 9.13C94.1832 9.31133 93.9565 9.402 93.7072 9.402C93.4352 9.402 93.1972 9.3 92.9932 9.096L90.0352 5.968L87.1112 9.096ZM110.357 11.034C114.323 11.034 116.307 13.2213 116.307 17.596V26.81C116.307 27.2407 116.182 27.5807 115.933 27.83C115.706 28.0567 115.377 28.17 114.947 28.17C114.516 28.17 114.176 28.0567 113.927 27.83C113.677 27.5807 113.553 27.2407 113.553 26.81V17.766C113.553 16.2247 113.247 15.1027 112.635 14.4C112.045 13.6973 111.093 13.346 109.779 13.346C108.26 13.346 107.047 13.8107 106.141 14.74C105.234 15.6693 104.781 16.9273 104.781 18.514V26.81C104.781 27.2407 104.656 27.5807 104.407 27.83C104.18 28.0567 103.851 28.17 103.421 28.17C102.99 28.17 102.65 28.0567 102.401 27.83C102.151 27.5807 102.027 27.2407 102.027 26.81V12.462C102.027 12.054 102.151 11.7253 102.401 11.476C102.65 11.2267 102.99 11.102 103.421 11.102C103.829 11.102 104.146 11.2267 104.373 11.476C104.622 11.7253 104.747 12.0427 104.747 12.428V14.162C105.291 13.142 106.05 12.3713 107.025 11.85C107.999 11.306 109.11 11.034 110.357 11.034ZM134.781 11.102C135.211 11.102 135.551 11.2267 135.801 11.476C136.05 11.7253 136.175 12.054 136.175 12.462V26.878C136.175 29.3487 135.54 31.2073 134.271 32.454C133.001 33.7233 131.12 34.358 128.627 34.358C126.201 34.358 124.184 33.882 122.575 32.93C121.759 32.4767 121.351 31.9553 121.351 31.366C121.351 31.0487 121.43 30.788 121.589 30.584C121.77 30.38 121.997 30.278 122.269 30.278C122.495 30.278 122.903 30.4367 123.493 30.754C124.286 31.162 125.068 31.4907 125.839 31.74C126.609 31.9893 127.527 32.114 128.593 32.114C130.202 32.114 131.415 31.6833 132.231 30.822C133.047 29.9833 133.455 28.748 133.455 27.116V24.192C132.979 25.2573 132.242 26.0733 131.245 26.64C130.27 27.2067 129.114 27.49 127.777 27.49C126.326 27.49 125.034 27.15 123.901 26.47C122.79 25.79 121.917 24.8267 121.283 23.58C120.671 22.3333 120.365 20.894 120.365 19.262C120.365 17.63 120.671 16.1907 121.283 14.944C121.917 13.6973 122.79 12.734 123.901 12.054C125.034 11.374 126.326 11.034 127.777 11.034C129.091 11.034 130.236 11.3173 131.211 11.884C132.185 12.4507 132.922 13.2553 133.421 14.298V12.462C133.421 12.054 133.534 11.7253 133.761 11.476C134.01 11.2267 134.35 11.102 134.781 11.102ZM128.321 25.212C129.907 25.212 131.154 24.6907 132.061 23.648C132.967 22.5827 133.421 21.1207 133.421 19.262C133.421 17.426 132.967 15.9867 132.061 14.944C131.177 13.8787 129.93 13.346 128.321 13.346C126.711 13.346 125.442 13.8787 124.513 14.944C123.606 15.9867 123.153 17.426 123.153 19.262C123.153 21.1207 123.606 22.5827 124.513 23.648C125.442 24.6907 126.711 25.212 128.321 25.212Z" fill="#FF7506"/>
</svg>
