<svg width="170" height="136" viewBox="0 0 170 136" fill="none" xmlns="http://www.w3.org/2000/svg">
<g clip-path="url(#clip0_84_4674)">
<path d="M76.9398 132.56L80.2073 111.272C80.338 110.532 80.6866 109.879 81.2965 109.313C81.9936 108.66 82.8214 108.355 83.6927 108.355C84.5641 108.355 85.3047 108.617 85.9582 109.183C86.6117 109.749 87.0474 110.358 87.2217 111.098L91.4477 126.204L95.7173 111.098C95.9352 110.358 96.3708 109.749 96.9808 109.226C97.6779 108.66 98.4621 108.355 99.2899 108.355C100.205 108.355 100.989 108.66 101.642 109.226C102.296 109.792 102.645 110.489 102.775 111.229L106.13 132.517V133.213C106.13 134.04 105.869 134.693 105.389 135.216C104.91 135.738 104.3 135.956 103.559 135.956C102.688 135.956 102.035 135.738 101.642 135.346C101.25 134.911 100.945 134.258 100.771 133.3L98.7235 117.759L94.3667 133.779C94.1925 134.432 93.9311 134.911 93.5825 135.216C93.1033 135.738 92.4062 135.956 91.5349 135.956C90.6635 135.956 90.01 135.695 89.4872 135.216C89.0951 134.824 88.8337 134.345 88.703 133.779L84.4334 117.759L82.2114 133.3C82.0807 134.215 81.8193 134.911 81.4272 135.303C80.9916 135.738 80.338 135.956 79.4667 135.956C78.726 135.956 78.1161 135.695 77.6369 135.216C77.1576 134.737 76.8962 134.04 76.8962 133.213C76.8527 132.909 76.8962 132.691 76.9398 132.56Z" fill="black"/>
<path d="M118.459 124.42C117.327 125.073 116.412 125.378 115.192 125.378C114.016 125.378 113.275 125.16 112.578 124.638C111.924 124.159 111.532 123.419 111.445 122.81C111.445 122.723 111.489 122.592 111.576 122.548C113.798 122.461 117.675 122.287 118.59 122.026C118.677 121.939 118.852 121.286 118.852 121.155C118.634 121.112 118.372 120.938 118.329 120.807C118.111 119.457 117.065 117.281 113.928 117.281C112.796 117.281 111.576 117.629 110.661 118.108C109.18 118.935 108.09 120.459 108.09 122.505C108.09 123.854 108.57 125.422 109.79 126.423C110.617 127.119 111.75 127.555 113.449 127.555C115.061 127.555 117.24 126.858 118.416 125.552C118.459 125.422 118.634 124.856 118.59 124.594C118.59 124.551 118.503 124.464 118.459 124.42ZM113.144 118.5C114.277 118.5 114.974 119.545 115.148 120.938C115.105 121.025 115.061 121.112 114.931 121.155C114.451 121.242 112.404 121.242 111.576 121.242C111.445 121.242 111.358 121.112 111.358 121.068C111.445 119.675 112.099 118.5 113.144 118.5ZM134.274 125.683C133.577 125.683 133.185 125.683 132.88 125.639C132.575 125.596 132.401 125.422 132.401 124.899V121.025C132.401 117.455 132.445 115.67 132.488 114.277C132.532 113.102 132.488 112.71 132.793 112.318C132.837 112.231 132.706 111.839 132.575 111.752C131.53 112.1 128.567 112.448 126.912 112.448C126.737 112.536 126.694 113.319 126.781 113.45C127.434 113.537 128.044 113.58 128.48 113.711C128.959 113.885 129.046 114.19 129.09 114.582C129.133 115.191 129.134 115.888 129.134 117.237C129.134 117.324 129.046 117.368 129.003 117.368C128.741 117.324 128.393 117.324 128.131 117.324C126.345 117.324 124.036 118.021 122.947 118.804C121.683 119.632 120.812 121.068 120.812 122.766C120.812 124.072 121.291 125.378 122.076 126.205C122.816 126.989 123.949 127.511 125.212 127.511C126.084 127.511 127.609 126.945 128.916 126.205C128.959 126.162 129.046 126.249 129.046 126.292C129.09 126.684 129.09 127.207 129.134 127.424C129.177 127.511 129.308 127.685 129.395 127.685C130.092 127.685 133.011 127.163 134.057 126.771C134.144 126.684 134.318 125.813 134.274 125.683ZM126.65 118.63C127.26 118.63 127.957 118.761 128.48 119.109C129.003 119.457 129.09 119.806 129.09 120.285C129.09 121.634 129.09 124.029 129.046 124.638C129.046 124.899 129.003 125.073 128.872 125.16C128.48 125.422 127.914 125.552 127.522 125.552C125.561 125.552 124.21 124.159 124.21 121.678C124.21 120.415 124.646 119.588 125.169 119.109C125.648 118.761 126.171 118.63 126.65 118.63ZM141.855 126.336C141.202 126.249 140.94 126.162 140.679 126.118C140.33 126.031 140.156 125.77 140.156 125.16C140.112 124.072 140.112 122.679 140.112 121.416V117.324C138.762 117.76 136.061 118.108 135.364 118.108C135.233 118.239 135.102 118.848 135.233 119.022C136.148 119.283 136.409 119.457 136.627 119.675C136.758 119.762 136.801 120.023 136.801 120.198V122.331C136.801 123.506 136.801 124.725 136.758 125.291C136.714 125.813 136.714 125.988 136.366 126.118C136.061 126.205 135.756 126.249 135.189 126.336C135.015 126.466 135.102 127.25 135.189 127.381C135.799 127.381 136.889 127.294 138.326 127.294C140.374 127.294 141.332 127.381 141.724 127.381C141.899 127.25 142.029 126.466 141.855 126.336ZM140.069 114.32C140.069 114.103 140.025 113.624 139.808 113.406C139.677 113.276 139.241 113.145 138.588 113.145C137.847 113.145 136.932 113.363 136.54 113.755C136.322 113.972 136.322 114.669 136.366 114.843C136.584 115.496 136.889 115.757 137.324 115.931C137.586 116.062 139.11 116.018 139.328 115.801C139.764 115.452 140.069 114.799 140.069 114.32ZM159.805 125.726C159.108 125.726 158.89 125.291 158.89 124.507C158.934 123.637 159.413 121.416 159.892 119.414C160.066 118.63 160.284 118.151 160.502 117.629C159.805 117.498 158.934 117.281 157.365 117.281C155.274 117.281 152.486 118.674 151.484 119.675C150.089 120.938 148.957 123.071 148.957 125.073C148.957 126.162 149.305 127.642 150.656 127.642C151.876 127.642 154.141 126.379 155.71 124.594C155.753 124.507 155.84 124.551 155.84 124.638C155.71 125.335 155.71 125.726 155.666 126.075C155.622 126.815 155.927 127.685 157.147 127.685C160.807 127.685 165.599 125.335 165.599 120.023C165.599 116.845 162.768 112.884 156.886 112.884C153.226 112.884 149.959 114.146 147.388 116.454C145.166 118.413 143.772 121.068 143.772 124.159C143.772 130.384 149.305 132.561 150.961 132.561C151.789 132.561 153.096 132.387 153.749 131.865C153.793 131.778 153.793 131.429 153.749 131.386C153.008 131.473 151.832 131.299 151.179 131.168C148.782 130.646 146.299 128.382 146.299 123.985C146.299 116.932 152.094 114.364 155.666 114.364C159.761 114.364 163.595 116.279 163.595 121.155C163.552 124.116 161.461 125.726 159.805 125.726ZM153.096 125.03C152.616 125.03 152.181 124.594 152.224 123.463C152.224 122.374 152.573 121.242 153.008 120.459C153.793 119.196 154.62 118.892 155.622 118.892C156.145 118.892 156.799 118.979 157.234 119.196C157.104 119.457 156.886 120.11 156.755 120.546C156.363 121.939 156.189 122.374 155.884 122.81C154.795 124.377 153.793 125.03 153.096 125.03Z" fill="black"/>
<path fill-rule="evenodd" clip-rule="evenodd" d="M170 0C161.896 24.8143 151.353 50.5429 133.926 69.872C114.538 89.5928 84.172 90.6376 63.2596 91.5954C42.3473 92.5531 25.356 92.379 14.2899 97.9078C3.22373 103.437 1.78601 112.927 1.78601 112.927L2.8752 107.05L10.5431 96.0794L49.9716 82.758L106.958 74.7478L144.251 51.7183L158.716 25.5544L167.429 5.70295L170 0Z" fill="black"/>
<path fill-rule="evenodd" clip-rule="evenodd" d="M153.052 34.5215C153.096 34.5215 148.085 43.8377 138.37 49.8454C131.704 53.9812 123.078 56.3755 113.798 56.7673C101.338 57.2897 90.8815 56.6367 82.9522 58.3781C75.5893 59.9888 69.0978 62.5138 66.7451 73.1361C66.7451 73.1361 66.0045 62.5573 78.944 56.1578C91.8835 49.7148 124.385 52.3269 135.102 47.1463C139.546 45.0132 143.685 43.0977 147.345 40.0938C149.48 38.3089 151.353 36.8723 153.052 34.5215Z" fill="black"/>
<path fill-rule="evenodd" clip-rule="evenodd" d="M95.6739 44.8837C93.8005 42.3152 89.8358 36.7864 71.7118 42.7941C57.8574 47.3651 46.2684 51.7185 35.7251 49.4983C29.1029 48.1052 24.3105 43.6212 19.6488 38.876C12.678 31.6929 7.66773 24.3792 8.01627 24.2051L11.6759 28.7761L22.4806 38.7019L40.6918 46.7557L69.2285 40.6174L85.1741 37.7441L90.1844 39.1808L93.7133 41.7057L94.9332 43.3165L95.4996 44.3613L95.6739 44.8837Z" fill="black"/>
<path fill-rule="evenodd" clip-rule="evenodd" d="M8.01635 24.2045C8.01635 24.2045 22.1758 42.6628 38.8621 42.5758C48.7519 42.5322 60.4279 39.4849 70.3177 37.7C74.4566 36.9599 78.5084 36.481 81.7759 36.481C86.8298 36.4375 94.8026 39.006 95.674 44.8831C95.674 44.8831 91.9707 35.0444 73.106 40.9215C57.4218 45.8408 44.1337 49.8895 33.7211 46.9727C31.2813 46.2762 29.0594 45.1878 27.0989 43.9253C22.8293 41.1392 19.2132 37.1776 15.6842 33.4337C10.9354 28.2967 7.62424 24.1174 8.01635 24.2045Z" fill="#FF7506"/>
<path fill-rule="evenodd" clip-rule="evenodd" d="M1.78603 112.927C1.78603 112.927 0.783976 106.005 7.10125 98.4302C11.4144 93.2497 19.6051 87.7209 32.1961 84.2382C63.1725 75.6184 103.995 72.3534 117.065 66.4763C130.092 60.5992 141.942 51.5877 147.519 43.2727C153.052 34.9577 152.921 34.6965 153.008 34.6965C153.052 34.6965 148.565 42.6197 138.588 48.1485C134.362 50.4994 128.001 53.2855 122.206 53.9385C102.601 56.1152 91.317 54.4609 82.6036 56.7682C73.8901 59.0755 70.7532 62.5147 68.7056 66.694C66.6579 70.8297 66.7886 73.1805 66.7886 73.1805C66.7886 73.1805 65.743 61.3393 78.6825 54.8963C91.622 48.4533 125.561 47.8873 136.235 42.6632C140.679 40.5301 144.818 38.6146 148.477 35.6108C153.662 31.3444 157.06 25.7286 161.417 16.8476C168.911 1.61076 170 0 170 0C161.635 22.2894 151.658 48.4533 135.059 65.388C115.671 85.1088 85.3047 86.9373 64.3924 87.895C43.48 88.8527 25.661 90.2023 14.5948 95.7311C3.52872 101.26 1.78603 112.927 1.78603 112.927Z" fill="#FF7506"/>
<path d="M7.10125 113.406H13.2443L19.8665 127.511H13.8106L13.07 125.639H7.10125L6.40417 127.511H0.479004L7.10125 113.406ZM8.234 122.679H12.0679L10.1074 117.629L8.234 122.679ZM22.0013 113.406H28.0572V124.203H36.335V127.468H21.9577V113.406H22.0013ZM37.947 113.406H54.8511V117.107H49.4488V127.511H43.4365V117.107H37.947V113.406ZM62.6061 113.406H68.7491L75.3714 127.511H69.3591L68.6184 125.639H62.6061L61.909 127.511H56.0274L62.6061 113.406ZM63.7389 122.679H67.5728L65.6123 117.629L63.7389 122.679Z" fill="#231F20" stroke="white" stroke-width="0.109501" stroke-miterlimit="2.6131"/>
<path d="M7.10125 113.406H13.2443L19.8665 127.511H13.8106L13.07 125.639H7.10125L6.40417 127.511H0.479004L7.10125 113.406ZM8.234 122.679H12.0679L10.1074 117.629L8.234 122.679ZM22.0013 113.406H28.0572V124.203H36.335V127.468H21.9577V113.406H22.0013ZM37.947 113.406H54.8511V117.107H49.4488V127.511H43.4365V117.107H37.947V113.406ZM62.6061 113.406H68.7491L75.3714 127.511H69.3591L68.6184 125.639H62.6061L61.909 127.511H56.0274L62.6061 113.406ZM63.7389 122.679H67.5728L65.6123 117.629L63.7389 122.679Z" fill="white" stroke="black" stroke-width="0.290356"/>
</g>
<defs>
<clipPath id="clip0_84_4674">
<rect width="170" height="136" fill="white"/>
</clipPath>
</defs>
</svg>
