<svg width="357" height="44" viewBox="0 0 357 44" fill="none" xmlns="http://www.w3.org/2000/svg">
<path d="M23.1265 39.16C23.5345 39.808 23.7385 40.42 23.7385 40.996C23.7385 41.788 23.4145 42.436 22.7665 42.94C22.1185 43.468 21.3745 43.732 20.5345 43.732C19.9585 43.732 19.4185 43.588 18.9145 43.3C18.4105 43.036 17.9905 42.64 17.6545 42.112L15.4945 38.476C15.2545 38.068 14.9305 37.768 14.5225 37.576C14.1145 37.408 13.5265 37.324 12.7585 37.324C10.1665 37.324 7.91053 36.796 5.99053 35.74C4.09453 34.66 2.63053 33.148 1.59853 31.204C0.566531 29.236 0.0505314 26.932 0.0505314 24.292C0.0505314 21.652 0.566531 19.36 1.59853 17.416C2.63053 15.448 4.09453 13.936 5.99053 12.88C7.91053 11.824 10.1665 11.296 12.7585 11.296C15.3505 11.296 17.5945 11.824 19.4905 12.88C21.4105 13.936 22.8745 15.448 23.8825 17.416C24.9145 19.36 25.4305 21.652 25.4305 24.292C25.4305 26.908 24.9145 29.2 23.8825 31.168C22.8745 33.136 21.4105 34.648 19.4905 35.704C20.7625 36.088 21.7225 36.82 22.3705 37.9L23.1265 39.16ZM12.7585 32.248C14.6785 32.248 16.1785 31.576 17.2585 30.232C18.3385 28.864 18.8785 26.884 18.8785 24.292C18.8785 21.7 18.3265 19.732 17.2225 18.388C16.1425 17.044 14.6545 16.372 12.7585 16.372C10.8385 16.372 9.33853 17.044 8.25853 18.388C7.17853 19.708 6.63853 21.676 6.63853 24.292C6.63853 26.908 7.17853 28.888 8.25853 30.232C9.33853 31.576 10.8385 32.248 12.7585 32.248ZM40.4389 37.324C36.7669 37.324 33.9709 36.388 32.0509 34.516C30.1549 32.644 29.2069 29.908 29.2069 26.308V14.68C29.2069 13.696 29.4949 12.916 30.0709 12.34C30.6709 11.74 31.4629 11.44 32.4469 11.44C33.4309 11.44 34.2109 11.74 34.7869 12.34C35.3869 12.916 35.6869 13.696 35.6869 14.68V26.56C35.6869 28.384 36.0949 29.788 36.9109 30.772C37.7269 31.756 38.9029 32.248 40.4389 32.248C41.9749 32.248 43.1509 31.756 43.9669 30.772C44.7829 29.788 45.1909 28.384 45.1909 26.56V14.68C45.1909 13.696 45.4789 12.916 46.0549 12.34C46.6549 11.74 47.4469 11.44 48.4309 11.44C49.4149 11.44 50.2069 11.74 50.8069 12.34C51.4069 12.916 51.7069 13.696 51.7069 14.68V26.308C51.7069 29.884 50.7349 32.62 48.7909 34.516C46.8709 36.388 44.0869 37.324 40.4389 37.324ZM80.2993 32.932C80.5153 33.388 80.6233 33.832 80.6233 34.264C80.6233 35.056 80.2993 35.728 79.6513 36.28C79.0273 36.832 78.3073 37.108 77.4913 37.108C76.9393 37.108 76.4353 36.964 75.9793 36.676C75.5233 36.388 75.1633 35.956 74.8993 35.38L73.2793 31.744H61.6153L59.9593 35.38C59.6953 35.956 59.3233 36.388 58.8433 36.676C58.3873 36.964 57.8833 37.108 57.3313 37.108C56.5153 37.108 55.7713 36.832 55.0993 36.28C54.4513 35.728 54.1273 35.056 54.1273 34.264C54.1273 33.832 54.2353 33.388 54.4513 32.932L63.9553 13.42C64.2673 12.772 64.7233 12.28 65.3233 11.944C65.9473 11.584 66.6313 11.404 67.3753 11.404C68.0953 11.404 68.7673 11.584 69.3913 11.944C70.0153 12.28 70.4833 12.772 70.7953 13.42L80.2993 32.932ZM63.8473 26.776H71.0473L67.4473 18.748L63.8473 26.776ZM68.9233 8.812C68.8273 9.076 68.6473 9.28 68.3833 9.424C68.1193 9.568 67.8193 9.64 67.4833 9.64C67.0753 9.64 66.7153 9.544 66.4033 9.352C66.0913 9.136 65.9353 8.86 65.9353 8.524C65.9353 8.044 66.0793 7.696 66.3673 7.48C66.6553 7.264 67.0513 7.06 67.5553 6.868C67.7233 6.82 67.8673 6.772 67.9873 6.724C68.1313 6.652 68.2033 6.58 68.2033 6.508C68.2033 6.124 67.8433 5.932 67.1233 5.932C66.9313 5.932 66.7513 5.944 66.5833 5.968C66.4393 5.992 66.2953 6.016 66.1513 6.04C65.6713 6.136 65.3473 6.184 65.1793 6.184C64.8913 6.184 64.6513 6.076 64.4593 5.86C64.2913 5.62 64.2073 5.344 64.2073 5.032C64.2073 4.576 64.4233 4.264 64.8553 4.096C65.6473 3.808 66.5833 3.664 67.6633 3.664C68.9593 3.664 69.9913 3.892 70.7593 4.348C71.5273 4.78 71.9113 5.308 71.9113 5.932C71.9113 6.436 71.7553 6.82 71.4433 7.084C71.1553 7.348 70.7353 7.6 70.1833 7.84C69.8233 7.984 69.5353 8.128 69.3193 8.272C69.1273 8.416 68.9953 8.596 68.9233 8.812ZM102.898 11.44C103.81 11.44 104.554 11.74 105.13 12.34C105.73 12.94 106.03 13.72 106.03 14.68V33.94C106.03 34.924 105.742 35.716 105.166 36.316C104.59 36.916 103.846 37.216 102.934 37.216C101.854 37.216 101.038 36.856 100.486 36.136L89.542 22.492V33.94C89.542 34.924 89.266 35.716 88.714 36.316C88.162 36.916 87.418 37.216 86.482 37.216C85.57 37.216 84.826 36.916 84.25 36.316C83.674 35.716 83.386 34.924 83.386 33.94V14.68C83.386 13.72 83.674 12.94 84.25 12.34C84.826 11.74 85.57 11.44 86.482 11.44C87.514 11.44 88.318 11.8 88.894 12.52L99.838 26.128V14.68C99.838 13.696 100.114 12.916 100.666 12.34C101.242 11.74 101.986 11.44 102.898 11.44ZM123.993 37C123.009 37 122.253 36.736 121.725 36.208C121.197 35.68 120.933 34.912 120.933 33.904V14.68C120.933 13.696 121.221 12.916 121.797 12.34C122.397 11.74 123.201 11.44 124.209 11.44C125.241 11.44 126.057 11.74 126.657 12.34C127.257 12.916 127.557 13.696 127.557 14.68V31.636H135.837C137.925 31.636 138.969 32.536 138.969 34.336C138.969 35.248 138.705 35.92 138.177 36.352C137.673 36.784 136.893 37 135.837 37H123.993ZM152.767 12.484C153.391 11.764 154.123 11.404 154.963 11.404C155.755 11.404 156.463 11.716 157.087 12.34C157.735 12.94 158.059 13.636 158.059 14.428C158.059 15.124 157.795 15.784 157.267 16.408L149.707 25.156V33.94C149.707 34.996 149.395 35.812 148.771 36.388C148.171 36.94 147.391 37.216 146.431 37.216C145.447 37.216 144.643 36.94 144.019 36.388C143.395 35.812 143.083 34.996 143.083 33.94V25.156L135.595 16.408C135.043 15.784 134.767 15.112 134.767 14.392C134.767 13.6 135.079 12.904 135.703 12.304C136.327 11.704 137.035 11.404 137.827 11.404C138.667 11.404 139.399 11.764 140.023 12.484L146.395 20.044L152.767 12.484ZM147.079 9.496C146.863 9.592 146.623 9.64 146.359 9.64C145.951 9.64 145.603 9.508 145.315 9.244C145.027 8.98 144.883 8.668 144.883 8.308C144.883 7.948 145.063 7.588 145.423 7.228L148.339 4.492C148.963 3.892 149.611 3.592 150.283 3.592C150.907 3.592 151.435 3.82 151.867 4.276C152.323 4.732 152.551 5.26 152.551 5.86C152.551 6.772 152.011 7.48 150.931 7.984L147.079 9.496ZM191.486 32.212C192.014 32.812 192.278 33.472 192.278 34.192C192.278 35.008 191.954 35.728 191.306 36.352C190.682 36.952 189.974 37.252 189.182 37.252C188.342 37.252 187.61 36.892 186.986 36.172L180.794 28.756L174.494 36.172C173.87 36.892 173.15 37.252 172.334 37.252C171.542 37.252 170.822 36.94 170.174 36.316C169.55 35.692 169.238 34.972 169.238 34.156C169.238 33.46 169.49 32.812 169.994 32.212L176.906 24.22L170.174 16.408C169.646 15.784 169.382 15.136 169.382 14.464C169.382 13.648 169.694 12.94 170.318 12.34C170.966 11.716 171.698 11.404 172.514 11.404C173.354 11.404 174.086 11.764 174.71 12.484L180.794 19.684L186.842 12.484C187.418 11.764 188.126 11.404 188.966 11.404C189.782 11.404 190.502 11.716 191.126 12.34C191.774 12.94 192.098 13.648 192.098 14.464C192.098 15.16 191.846 15.808 191.342 16.408L184.61 24.22L191.486 32.212ZM198.454 37C197.47 37 196.714 36.736 196.186 36.208C195.658 35.68 195.394 34.924 195.394 33.94V14.68C195.394 13.696 195.658 12.94 196.186 12.412C196.714 11.884 197.47 11.62 198.454 11.62H210.91C211.942 11.62 212.722 11.836 213.25 12.268C213.778 12.7 214.042 13.324 214.042 14.14C214.042 15.868 212.998 16.732 210.91 16.732H201.838V21.556H210.19C212.278 21.556 213.322 22.408 213.322 24.112C213.322 24.928 213.058 25.552 212.53 25.984C212.002 26.416 211.222 26.632 210.19 26.632H201.838V31.888H210.91C212.998 31.888 214.042 32.752 214.042 34.48C214.042 35.296 213.778 35.92 213.25 36.352C212.722 36.784 211.942 37 210.91 37H198.454ZM210.622 5.608C210.43 5.704 210.214 5.752 209.974 5.752C209.59 5.752 209.266 5.62 209.002 5.356C208.738 5.068 208.606 4.732 208.606 4.348C208.606 4.012 208.738 3.676 209.002 3.34L210.658 1.252C211.186 0.579999 211.798 0.243999 212.494 0.243999C213.094 0.243999 213.622 0.495999 214.078 1C214.558 1.504 214.798 2.068 214.798 2.692C214.798 3.124 214.666 3.52 214.402 3.88C214.162 4.24 213.778 4.528 213.25 4.744L210.622 5.608ZM202.486 9.244C202.15 9.484 201.79 9.604 201.406 9.604C200.926 9.604 200.494 9.436 200.11 9.1C199.75 8.74 199.57 8.332 199.57 7.876C199.57 7.252 199.918 6.724 200.614 6.292L203.026 5.032C203.818 4.576 204.502 4.348 205.078 4.348C205.654 4.348 206.338 4.576 207.13 5.032L209.542 6.292C210.262 6.748 210.622 7.288 210.622 7.912C210.622 8.368 210.43 8.776 210.046 9.136C209.686 9.472 209.266 9.64 208.786 9.64C208.426 9.64 208.09 9.532 207.778 9.316L205.078 7.588L202.486 9.244ZM220.15 37.216C219.142 37.216 218.338 36.928 217.738 36.352C217.162 35.752 216.874 34.948 216.874 33.94V14.68C216.874 13.696 217.138 12.94 217.666 12.412C218.194 11.884 218.95 11.62 219.934 11.62H229.15C231.958 11.62 234.142 12.34 235.702 13.78C237.262 15.196 238.042 17.176 238.042 19.72C238.042 22.24 237.25 24.22 235.666 25.66C234.106 27.1 231.934 27.82 229.15 27.82H223.498V33.94C223.498 34.948 223.198 35.752 222.598 36.352C221.998 36.928 221.182 37.216 220.15 37.216ZM228.25 22.852C229.474 22.852 230.374 22.6 230.95 22.096C231.55 21.592 231.85 20.812 231.85 19.756C231.85 17.668 230.65 16.624 228.25 16.624H223.498V22.852H228.25ZM271.626 11.44C272.61 11.44 273.39 11.74 273.966 12.34C274.566 12.916 274.866 13.696 274.866 14.68V33.94C274.866 34.924 274.566 35.716 273.966 36.316C273.39 36.916 272.61 37.216 271.626 37.216C270.642 37.216 269.85 36.928 269.25 36.352C268.674 35.752 268.386 34.948 268.386 33.94V26.74H258.018V33.94C258.018 34.924 257.718 35.716 257.118 36.316C256.542 36.916 255.762 37.216 254.778 37.216C253.794 37.216 253.002 36.928 252.402 36.352C251.826 35.752 251.538 34.948 251.538 33.94V14.68C251.538 13.696 251.826 12.916 252.402 12.34C253.002 11.74 253.794 11.44 254.778 11.44C255.762 11.44 256.542 11.74 257.118 12.34C257.718 12.916 258.018 13.696 258.018 14.68V21.484H268.386V14.68C268.386 13.696 268.674 12.916 269.25 12.34C269.85 11.74 270.642 11.44 271.626 11.44ZM303.788 32.932C304.004 33.388 304.112 33.832 304.112 34.264C304.112 35.056 303.788 35.728 303.14 36.28C302.516 36.832 301.796 37.108 300.98 37.108C300.428 37.108 299.924 36.964 299.468 36.676C299.012 36.388 298.652 35.956 298.388 35.38L296.768 31.744H285.104L283.448 35.38C283.184 35.956 282.812 36.388 282.332 36.676C281.876 36.964 281.372 37.108 280.82 37.108C280.004 37.108 279.26 36.832 278.588 36.28C277.94 35.728 277.616 35.056 277.616 34.264C277.616 33.832 277.724 33.388 277.94 32.932L287.444 13.42C287.756 12.772 288.212 12.28 288.812 11.944C289.436 11.584 290.12 11.404 290.864 11.404C291.584 11.404 292.256 11.584 292.88 11.944C293.504 12.28 293.972 12.772 294.284 13.42L303.788 32.932ZM287.336 26.776H294.536L290.936 18.748L287.336 26.776ZM286.328 7.984C285.224 7.48 284.672 6.772 284.672 5.86C284.672 5.284 284.888 4.768 285.32 4.312C285.776 3.856 286.316 3.628 286.94 3.628C287.612 3.628 288.272 3.916 288.92 4.492L291.836 7.228C292.172 7.564 292.34 7.924 292.34 8.308C292.34 8.668 292.196 8.98 291.908 9.244C291.62 9.508 291.284 9.64 290.9 9.64C290.636 9.64 290.396 9.592 290.18 9.496L286.328 7.984ZM326.386 11.44C327.298 11.44 328.042 11.74 328.618 12.34C329.218 12.94 329.518 13.72 329.518 14.68V33.94C329.518 34.924 329.23 35.716 328.654 36.316C328.078 36.916 327.334 37.216 326.422 37.216C325.342 37.216 324.526 36.856 323.974 36.136L313.03 22.492V33.94C313.03 34.924 312.754 35.716 312.202 36.316C311.65 36.916 310.906 37.216 309.97 37.216C309.058 37.216 308.314 36.916 307.738 36.316C307.162 35.716 306.874 34.924 306.874 33.94V14.68C306.874 13.72 307.162 12.94 307.738 12.34C308.314 11.74 309.058 11.44 309.97 11.44C311.002 11.44 311.806 11.8 312.382 12.52L323.326 26.128V14.68C323.326 13.696 323.602 12.916 324.154 12.34C324.73 11.74 325.474 11.44 326.386 11.44ZM353.992 22.672C354.784 22.672 355.408 22.9 355.864 23.356C356.344 23.788 356.584 24.376 356.584 25.12V31.384C356.584 32.584 356.488 33.508 356.296 34.156C356.128 34.78 355.804 35.272 355.324 35.632C354.868 35.992 354.172 36.304 353.236 36.568C352.3 36.808 351.256 36.988 350.104 37.108C348.976 37.252 347.92 37.324 346.936 37.324C344.176 37.324 341.776 36.808 339.736 35.776C337.72 34.72 336.172 33.22 335.092 31.276C334.012 29.308 333.472 26.98 333.472 24.292C333.472 21.652 334.012 19.36 335.092 17.416C336.172 15.448 337.708 13.936 339.7 12.88C341.692 11.824 344.02 11.296 346.684 11.296C348.364 11.296 349.864 11.5 351.184 11.908C352.528 12.292 353.776 12.892 354.928 13.708C355.336 13.996 355.624 14.308 355.792 14.644C355.984 14.98 356.08 15.412 356.08 15.94C356.08 16.684 355.876 17.32 355.468 17.848C355.06 18.352 354.568 18.604 353.992 18.604C353.608 18.604 353.272 18.556 352.984 18.46C352.72 18.34 352.372 18.148 351.94 17.884C351.052 17.404 350.212 17.056 349.42 16.84C348.652 16.624 347.812 16.516 346.9 16.516C344.62 16.516 342.916 17.152 341.788 18.424C340.684 19.696 340.132 21.652 340.132 24.292C340.132 27.004 340.708 29.02 341.86 30.34C343.036 31.636 344.824 32.284 347.224 32.284C348.376 32.284 349.516 32.164 350.644 31.924V27.208H348.052C347.26 27.208 346.648 27.016 346.216 26.632C345.784 26.224 345.568 25.66 345.568 24.94C345.568 24.22 345.784 23.668 346.216 23.284C346.648 22.876 347.26 22.672 348.052 22.672H353.992Z" fill="#FF7506"/>
</svg>
